<svg width="10" height="13" viewBox="0 0 10 13" fill="none" xmlns="http://www.w3.org/2000/svg">
<path d="M4.81634 1.01221C2.60324 1.01221 0.802734 3.28252 0.802734 6.07309C0.802734 8.86366 2.60324 11.134 4.81634 11.134C7.02944 11.134 8.82995 8.86366 8.82995 6.07309C8.82995 3.28252 7.02944 1.01221 4.81634 1.01221ZM4.01402 8.30646L2.74314 6.70741C2.61463 6.54573 2.61436 6.31685 2.74247 6.15486C2.92026 5.93003 3.26119 5.92965 3.43949 6.15408L4.01322 6.87625L5.78962 4.63633C5.96765 4.41185 6.30839 4.41185 6.48642 4.63633C6.61477 4.79817 6.61477 5.02709 6.48642 5.18893L4.01402 8.30646Z" fill="#2FAB73"/>
</svg>
