<svg width="17" height="17" viewBox="0 0 17 17" fill="none" xmlns="http://www.w3.org/2000/svg">
<path d="M7.40461 11.4829C7.31313 11.4831 7.2225 11.4661 7.13794 11.4329C7.05338 11.3998 6.97655 11.3511 6.91186 11.2897L3.95531 8.48281C3.8887 8.42182 3.83555 8.34886 3.79896 8.26818C3.76238 8.18749 3.74309 8.1007 3.74222 8.01286C3.74135 7.92502 3.75892 7.8379 3.7939 7.75658C3.82889 7.67526 3.88058 7.60136 3.94598 7.5392C4.01137 7.47705 4.08915 7.42787 4.17478 7.39455C4.26041 7.36123 4.35217 7.34443 4.44472 7.34513C4.53726 7.34583 4.62873 7.36402 4.71379 7.39863C4.79884 7.43325 4.87579 7.48359 4.94013 7.54673L7.40392 9.88527L11.8401 5.6759C11.9708 5.55177 12.1481 5.482 12.333 5.48193C12.5179 5.48187 12.6952 5.55152 12.826 5.67557C12.9568 5.79961 13.0303 5.96789 13.0303 6.14337C13.0304 6.31886 12.957 6.48718 12.8263 6.61131L7.89737 11.2897C7.83268 11.3511 7.75585 11.3998 7.67129 11.4329C7.58673 11.4661 7.4961 11.4831 7.40461 11.4829Z" fill="#2FAB73"/>
</svg>
