<svg width="15" height="14" viewBox="0 0 15 14" fill="none" xmlns="http://www.w3.org/2000/svg">
<rect x="0.625" y="0.125" width="13.75" height="13.75" rx="6.875" fill="#FFECEC"/>
<path d="M9.25 6.25C9.25 6.02019 9.20474 5.79262 9.11679 5.5803C9.02884 5.36798 8.89994 5.17507 8.73744 5.01256C8.57493 4.85006 8.38202 4.72116 8.1697 4.63321C7.95738 4.54527 7.72981 4.5 7.5 4.5C7.27019 4.5 7.04262 4.54527 6.8303 4.63321C6.61798 4.72116 6.42507 4.85006 6.26256 5.01256C6.10006 5.17507 5.97116 5.36798 5.88321 5.5803C5.79527 5.79262 5.75 6.02019 5.75 6.25C5.75 6.59675 5.8525 6.91925 6.02625 7.19125H6.02425C6.61425 8.115 7.5 9.5 7.5 9.5L8.97575 7.19125H8.974C9.1541 6.91034 9.24989 6.58369 9.25 6.25ZM7.5 7C7.30109 7 7.11032 6.92098 6.96967 6.78033C6.82902 6.63968 6.75 6.44891 6.75 6.25C6.75 6.05109 6.82902 5.86032 6.96967 5.71967C7.11032 5.57902 7.30109 5.5 7.5 5.5C7.69891 5.5 7.88968 5.57902 8.03033 5.71967C8.17098 5.86032 8.25 6.05109 8.25 6.25C8.25 6.44891 8.17098 6.63968 8.03033 6.78033C7.88968 6.92098 7.69891 7 7.5 7Z" fill="#F53838"/>
</svg>
