<svg width="40" height="40" viewBox="0 0 40 40" fill="none" xmlns="http://www.w3.org/2000/svg">
<g clip-path="url(#clip0)">
<path d="M36.319 5.02087H3.68102C1.65133 5.02087 0 6.67212 0 8.70439C0 10.7341 1.65133 12.3854 3.68102 12.3854H36.319C38.3487 12.3854 40 10.7341 40 8.70439C40 6.67212 38.3487 5.02087 36.319 5.02087Z" fill="black"/>
<path d="M36.319 16.3177H3.68102C1.65133 16.3177 0 17.969 0 20.0013C0 22.0309 1.65133 23.6823 3.68102 23.6823H36.319C38.3487 23.6823 40 22.0309 40 20.0013C40 17.969 38.3487 16.3177 36.319 16.3177Z" fill="black"/>
<path d="M36.319 27.6146H3.68102C1.65133 27.6146 0 29.2659 0 31.2981C0 33.3278 1.65133 34.9791 3.68102 34.9791H36.319C38.3487 34.9791 40 33.3278 40 31.2981C40 29.2659 38.3487 27.6146 36.319 27.6146Z" fill="black"/>
</g>
<defs>
<clipPath id="clip0">
<rect width="40" height="40" fill="white"/>
</clipPath>
</defs>
</svg>
