<svg width="15" height="14" viewBox="0 0 15 14" fill="none" xmlns="http://www.w3.org/2000/svg">
<rect x="0.75" y="0.125" width="13.75" height="13.75" rx="6.875" fill="#FFECEC"/>
<g clip-path="url(#clip0)">
<path d="M9.625 4.75H5.625C5.49239 4.75 5.36521 4.80268 5.27145 4.89645C5.17768 4.99021 5.125 5.11739 5.125 5.25V6.25C5.125 6.38261 5.17768 6.50979 5.27145 6.60355C5.36521 6.69732 5.49239 6.75 5.625 6.75H9.625C9.75761 6.75 9.88479 6.69732 9.97855 6.60355C10.0723 6.50979 10.125 6.38261 10.125 6.25V5.25C10.125 5.11739 10.0723 4.99021 9.97855 4.89645C9.88479 4.80268 9.75761 4.75 9.625 4.75ZM8.375 5.75C8.375 5.88807 8.26307 6 8.125 6C7.98693 6 7.875 5.88807 7.875 5.75C7.875 5.61193 7.98693 5.5 8.125 5.5C8.26307 5.5 8.375 5.61193 8.375 5.75ZM9.375 5.75C9.375 5.88807 9.26307 6 9.125 6C8.98693 6 8.875 5.88807 8.875 5.75C8.875 5.61193 8.98693 5.5 9.125 5.5C9.26307 5.5 9.375 5.61193 9.375 5.75ZM9.625 7.25H5.625C5.49239 7.25 5.36521 7.30268 5.27145 7.39645C5.17768 7.49021 5.125 7.61739 5.125 7.75V8.75C5.125 8.88261 5.17768 9.00979 5.27145 9.10355C5.36521 9.19732 5.49239 9.25 5.625 9.25H9.625C9.75761 9.25 9.88479 9.19732 9.97855 9.10355C10.0723 9.00979 10.125 8.88261 10.125 8.75V7.75C10.125 7.61739 10.0723 7.49021 9.97855 7.39645C9.88479 7.30268 9.75761 7.25 9.625 7.25ZM8.375 8.25C8.375 8.38807 8.26307 8.5 8.125 8.5C7.98693 8.5 7.875 8.38807 7.875 8.25C7.875 8.11193 7.98693 8 8.125 8C8.26307 8 8.375 8.11193 8.375 8.25ZM9.375 8.25C9.375 8.38807 9.26307 8.5 9.125 8.5C8.98693 8.5 8.875 8.38807 8.875 8.25C8.875 8.11193 8.98693 8 9.125 8C9.26307 8 9.375 8.11193 9.375 8.25Z" fill="#F53838"/>
</g>
<defs>
<clipPath id="clip0">
<rect x="4.625" y="4" width="6" height="6" rx="3" fill="white"/>
</clipPath>
</defs>
</svg>
