<svg width="13" height="13" viewBox="0 0 13 13" fill="none" xmlns="http://www.w3.org/2000/svg">
<path d="M11.1418 4.5428L8.16638 4.09469L6.83631 1.30039C6.79998 1.22389 6.74021 1.16195 6.66638 1.12431C6.48123 1.02959 6.25623 1.10852 6.16365 1.30039L4.83358 4.09469L1.85819 4.5428C1.77616 4.55494 1.70116 4.59502 1.64374 4.65573C1.57432 4.72967 1.53607 4.82915 1.53739 4.9323C1.5387 5.03545 1.57949 5.13384 1.65077 5.20585L3.8035 7.38081L3.29491 10.452C3.28298 10.5234 3.29061 10.5969 3.31693 10.6641C3.34325 10.7313 3.38721 10.7895 3.44382 10.8321C3.50043 10.8747 3.56742 10.9 3.63721 10.9051C3.707 10.9103 3.77679 10.8951 3.83866 10.8612L6.49998 9.41126L9.1613 10.8612C9.23396 10.9013 9.31833 10.9147 9.39919 10.9001C9.6031 10.8637 9.7402 10.6633 9.70505 10.452L9.19646 7.38081L11.3492 5.20585C11.4078 5.14635 11.4465 5.06863 11.4582 4.98362C11.4898 4.7711 11.3468 4.57437 11.1418 4.5428Z" fill="#FEA250"/>
</svg>
