<svg width="15" height="14" viewBox="0 0 15 14" fill="none" xmlns="http://www.w3.org/2000/svg">
<rect x="0.5" width="13.75" height="13.75" rx="6.875" fill="#FFECEC"/>
<g clip-path="url(#clip0)">
<path fill-rule="evenodd" clip-rule="evenodd" d="M7.3749 6.57502C7.6136 6.57502 7.84252 6.4802 8.0113 6.31142C8.18008 6.14264 8.2749 5.91372 8.2749 5.67502C8.2749 5.43633 8.18008 5.20741 8.0113 5.03863C7.84252 4.86985 7.6136 4.77502 7.3749 4.77502C7.13621 4.77502 6.90729 4.86985 6.73851 5.03863C6.56972 5.20741 6.4749 5.43633 6.4749 5.67502C6.4749 5.91372 6.56972 6.14264 6.73851 6.31142C6.90729 6.4802 7.13621 6.57502 7.3749 6.57502ZM6.09957 9.27502C5.64412 9.27502 5.26046 8.89217 5.43476 8.47139C5.54029 8.21661 5.69498 7.9851 5.88998 7.7901C6.08498 7.5951 6.31648 7.44041 6.57127 7.33488C6.82605 7.22934 7.09913 7.17502 7.3749 7.17502C7.65068 7.17502 7.92375 7.22934 8.17854 7.33488C8.43332 7.44041 8.66482 7.5951 8.85983 7.7901C9.05483 7.9851 9.20951 8.21661 9.31505 8.47139C9.48934 8.89217 9.10569 9.27502 8.65024 9.27502H6.09957Z" fill="#F53838"/>
</g>
<defs>
<clipPath id="clip0">
<rect x="4.375" y="3.875" width="6" height="6" rx="3" fill="white"/>
</clipPath>
</defs>
</svg>
