<svg width="250" height="157" viewBox="0 0 250 157" fill="none" xmlns="http://www.w3.org/2000/svg">
<g clip-path="url(#clip0)">
<path opacity="0.1" d="M250 102.087C250.014 110.203 248.039 118.167 244.292 125.108C244.292 133.598 240.765 141.293 235.044 146.901C233.612 148.303 232.07 149.557 230.437 150.648C230.372 150.694 230.304 150.738 230.236 150.783C230.114 150.864 229.991 150.944 229.867 151.028L229.751 151.104C229.229 151.435 228.695 151.754 228.151 152.053C223.137 154.82 217.62 156.246 212.032 156.222H47.4586C46.1474 156.222 44.8478 156.163 43.56 156.045C38.9832 155.64 34.4858 154.472 30.2164 152.578C29.3831 152.208 28.5658 151.811 27.7645 151.386C27.3828 151.185 27.0047 150.978 26.6303 150.765C26.3965 150.633 26.1627 150.496 25.931 150.358C24.5255 149.52 23.164 148.591 21.8532 147.578C20.6553 146.658 19.5027 145.665 18.4004 144.606C10.9638 137.445 6.36372 127.536 6.36372 116.602C2.19536 109.399 -0.0156896 100.991 8.38089e-05 92.4034C8.38089e-05 68.0924 17.3165 48.3841 38.6802 48.3841C39.3358 48.3841 39.9913 48.4062 40.6469 48.4454C40.7409 48.4454 40.8327 48.4454 40.9267 48.4601C44.5281 41.5719 49.3423 35.2428 55.1312 29.6715C70.9179 14.4924 93.9905 4.92398 119.692 4.92398C141.287 4.92398 161.027 11.6798 176.147 22.8421C181.877 19.2077 188.348 17.3025 194.93 17.3124C216.289 17.3124 233.61 37.0207 233.61 61.3317C233.607 62.8699 233.534 64.407 233.392 65.9369C238.54 70.0266 242.737 75.4459 245.628 81.7375C248.518 88.0292 250.018 95.0086 250 102.087Z" fill="#FF6366"/>
<path opacity="0.1" d="M199.014 67.1826V64.5514C200.848 63.7158 202.367 62.1908 203.309 60.2374C204.251 58.284 204.559 56.0238 204.18 53.8438C203.8 51.6638 202.757 49.6996 201.229 48.2875C199.701 46.8754 197.784 46.1032 195.804 46.1032C193.825 46.1032 191.907 46.8754 190.379 48.2875C188.851 49.6996 187.808 51.6638 187.429 53.8438C187.049 56.0238 187.357 58.284 188.299 60.2374C189.242 62.1908 190.76 63.7158 192.594 64.5514V67.1826C190.456 67.8495 188.524 69.1676 187.013 70.9908C185.412 68.2958 183.001 66.336 180.221 65.4685V62.8349C182.055 61.9993 183.573 60.4742 184.515 58.5209C185.457 56.5675 185.765 54.3073 185.386 52.1273C185.007 49.9473 183.964 47.9831 182.436 46.5709C180.908 45.1588 178.99 44.3867 177.01 44.3867C175.031 44.3867 173.113 45.1588 171.585 46.5709C170.057 47.9831 169.014 49.9473 168.635 52.1273C168.256 54.3073 168.563 56.5675 169.506 58.5209C170.448 60.4742 171.966 61.9993 173.8 62.8349V65.4661C171.899 66.0583 170.157 67.1666 168.728 68.6931C167.133 66.2912 164.873 64.5522 162.301 63.7495V61.1183C164.135 60.2827 165.653 58.7577 166.596 56.8043C167.538 54.851 167.846 52.5908 167.466 50.4108C167.087 48.2308 166.044 46.2665 164.516 44.8544C162.988 43.4423 161.07 42.6701 159.091 42.6701C157.111 42.6701 155.193 43.4423 153.666 44.8544C152.138 46.2665 151.095 48.2308 150.715 50.4108C150.336 52.5908 150.644 54.851 151.586 56.8043C152.528 58.7577 154.047 60.2827 155.881 61.1183V63.7495C153.693 64.4336 151.723 65.7991 150.199 67.6877C149.519 65.7328 148.443 63.9824 147.056 62.5752C145.669 61.168 144.009 60.1428 142.207 59.5808V56.9496C144.041 56.114 145.559 54.589 146.502 52.6356C147.444 50.6823 147.752 48.4221 147.372 46.2421C146.993 44.062 145.95 42.0978 144.422 40.6857C142.894 39.2736 140.976 38.5014 138.997 38.5014C137.017 38.5014 135.1 39.2736 133.572 40.6857C132.044 42.0978 131.001 44.062 130.621 46.2421C130.242 48.4221 130.55 50.6823 131.492 52.6356C132.434 54.589 133.953 56.114 135.787 56.9496V59.5808C133.445 60.3124 131.356 61.8236 129.795 63.915C128.235 66.0063 127.276 68.5795 127.045 71.2949C125.942 70.4358 124.718 69.7916 123.424 69.3896V66.7584C125.258 65.9228 126.777 64.3977 127.719 62.4444C128.661 60.491 128.969 58.2308 128.59 56.0508C128.21 53.8708 127.167 51.9066 125.639 50.4944C124.111 49.0823 122.194 48.3102 120.214 48.3102C118.235 48.3102 116.317 49.0823 114.789 50.4944C113.261 51.9066 112.218 53.8708 111.839 56.0508C111.459 58.2308 111.767 60.491 112.709 62.4444C113.652 64.3977 115.17 65.9228 117.004 66.7584V69.3896C115.372 69.8997 113.853 70.79 112.548 72.0027C111.243 73.2153 110.181 74.723 109.43 76.4273C108.417 75.6972 107.312 75.1433 106.152 74.7844V72.1532C107.986 71.3176 109.504 69.7926 110.446 67.8392C111.388 65.8858 111.696 63.6256 111.317 61.4456C110.937 59.2656 109.895 57.3014 108.367 55.8893C106.839 54.4771 104.921 53.705 102.941 53.705C100.962 53.705 99.044 54.4771 97.5161 55.8893C95.9882 57.3014 94.9452 59.2656 94.5659 61.4456C94.1865 63.6256 94.4943 65.8858 95.4366 67.8392C96.3789 69.7926 97.8971 71.3176 99.7311 72.1532V74.7844C98.6363 75.1234 97.5905 75.637 96.6258 76.3096C95.8697 74.6332 94.8104 73.152 93.5157 71.9605C92.221 70.7691 90.7192 69.8934 89.1061 69.3896V66.7584C90.9402 65.9228 92.4583 64.3977 93.4006 62.4444C94.3429 60.491 94.6507 58.2308 94.2714 56.0508C93.892 53.8708 92.8491 51.9066 91.3212 50.4944C89.7932 49.0823 87.8753 48.3102 85.8959 48.3102C83.9164 48.3102 81.9986 49.0823 80.4706 50.4944C78.9427 51.9066 77.8998 53.8708 77.5204 56.0508C77.1411 58.2308 77.4489 60.491 78.3912 62.4444C79.3335 64.3977 80.8516 65.9228 82.6857 66.7584V69.3896C80.9495 69.9315 79.3439 70.9038 77.9873 72.2347C76.6306 73.5656 75.5574 75.2213 74.8469 77.0796C73.6248 76.0269 72.2338 75.2477 70.7495 74.7844V72.1532C72.5835 71.3176 74.1017 69.7926 75.044 67.8392C75.9863 65.8858 76.2941 63.6256 75.9147 61.4456C75.5354 59.2656 74.4924 57.3014 72.9645 55.8893C71.4366 54.4771 69.5187 53.705 67.5393 53.705C65.5598 53.705 63.6419 54.4771 62.114 55.8893C60.5861 57.3014 59.5431 59.2656 59.1638 61.4456C58.7844 63.6256 59.0922 65.8858 60.0345 67.8392C60.9768 69.7926 62.495 71.3176 64.329 72.1532V74.7844C61.7964 75.572 59.5636 77.2695 57.9726 79.6168C56.3816 81.9641 55.5201 84.8319 55.52 87.781V148.595H79.5454V143.2H90.909V148.595H114.947V143.2H132.211V133.392H147.072V137.56H164.991V139.277H183.785V140.993H207.823V80.1792C207.823 77.2301 206.962 74.3623 205.371 72.015C203.78 69.6677 201.547 67.9703 199.014 67.1826Z" fill="#FF6366"/>
<path d="M107.251 41.442H127.231C132.118 41.4416 136.957 42.5214 141.472 44.6197C145.987 46.718 150.089 49.7937 153.545 53.6711C157.001 57.5485 159.742 62.1518 161.612 67.218C163.482 72.2842 164.445 77.7141 164.445 83.1978V139.775H70.0393V83.1978C70.0393 72.1235 73.9598 61.5027 80.9383 53.672C87.9168 45.8412 97.3817 41.442 107.251 41.442Z" fill="#2F2E41"/>
<path opacity="0.2" d="M109.436 43.7176H125.046C129.933 43.7173 134.772 44.7971 139.287 46.8954C143.802 48.9936 147.904 52.0693 151.36 55.9467C154.815 59.8242 157.557 64.4274 159.427 69.4936C161.297 74.5598 162.26 79.9898 162.26 85.4734V137.497H72.2246V85.4734C72.2246 74.3991 76.1451 63.7783 83.1236 55.9476C90.1021 48.1169 99.567 43.7176 109.436 43.7176Z" fill="black"/>
<path d="M228.147 147.766V152.048C223.132 154.815 217.616 156.241 212.028 156.217H47.4584C46.1472 156.217 44.8476 156.158 43.5598 156.04C38.983 155.636 34.4856 154.467 30.2162 152.573C29.3829 152.203 28.5656 151.806 27.7643 151.381C27.3826 151.18 27.0045 150.973 26.6301 150.76C26.3963 150.628 26.1625 150.491 25.9308 150.353C24.5254 149.516 23.1639 148.59 21.853 147.578V135.949C21.853 134.07 22.5184 132.267 23.7028 130.938C24.8872 129.609 26.4936 128.862 28.1686 128.862H209.819C211.347 128.866 212.822 129.49 213.971 130.621L225.99 142.44C226.667 143.104 227.21 143.923 227.582 144.842C227.954 145.76 228.146 146.757 228.147 147.766Z" fill="#2F2E41"/>
<path d="M105.479 55.3729C100.713 55.726 95.9659 56.2982 91.2369 57.0894C89.8929 57.315 88.5292 57.5651 87.3033 58.2321C86.3506 58.792 85.4724 59.4985 84.694 60.3312C81.1836 63.8602 78.357 68.1613 76.3898 72.9673C75.1726 75.9467 74.2985 79.0978 73.1512 82.1017C69.0668 92.83 61.6586 101.604 57.347 112.219C56.4139 114.517 55.6271 116.915 55.3146 119.414C54.9912 121.999 55.3583 125.015 57.2508 126.526C58.125 127.22 59.187 127.506 60.2272 127.752C73.322 131.006 86.569 133.433 99.906 135.022C98.4615 133.458 97.9785 131.033 98.1687 128.791C98.3588 126.55 99.1433 124.431 99.9169 122.354C92.3688 120.486 84.8397 118.524 77.3295 116.469C76.2084 116.163 74.8623 115.586 74.7246 114.301C74.6547 113.647 74.9431 113.016 75.2272 112.44C78.4303 105.932 82.2711 99.8455 86.6783 94.294C86.6783 101.175 86.3745 108.946 86.3745 115.829H157.201C156.349 111.902 155.848 107.889 155.706 103.85C155.376 90.6672 159.331 77.5848 158.304 64.4288C158.208 63.215 158.059 61.9644 157.493 60.9246C156.517 59.1296 154.567 58.3866 152.775 57.7736C145.905 55.4293 138.89 53.058 131.709 53.2419C129.574 53.2983 127.448 53.5779 125.326 53.8599C118.859 54.7157 111.975 54.8898 105.479 55.3729Z" fill="#FF6366"/>
<path d="M72.3077 134.458L77.4651 152.98C77.4981 153.097 77.5635 153.2 77.6519 153.272C77.7404 153.345 77.8471 153.384 77.9568 153.384H100.087L94.8427 131.805L72.7579 133.71C72.681 133.718 72.6065 133.744 72.5399 133.788C72.4732 133.832 72.4162 133.892 72.373 133.963C72.3298 134.035 72.3015 134.117 72.2902 134.203C72.2789 134.288 72.2849 134.376 72.3077 134.458Z" fill="#656478"/>
<path d="M110.14 63.3375C109.178 63.9579 108.057 64.1811 106.965 64.3944L99.9125 65.7676C98.5401 66.0349 97.0957 66.339 96.038 67.3566C93.8745 69.4336 94.3422 73.2566 94.9977 76.366L96.3089 82.6043C97.2967 87.2929 98.3063 92.0379 100.332 96.2851C103.87 103.698 110.361 109.036 117.498 111.609C120.048 112.528 122.742 113.127 125.404 112.798C130.618 112.156 135.079 107.984 137.828 102.97C140.577 97.955 141.886 92.1384 143.086 86.4052C144.237 80.9172 145.332 75.3508 145.258 69.7107C145.236 67.955 145.079 66.1207 144.244 64.6323C142.415 61.3635 138.269 61.1183 134.871 61.7215C134.342 61.8171 133.794 61.9201 133.284 61.7411C131.755 61.2065 131.72 58.85 131.064 57.2144C129.825 54.1295 126.149 53.5827 123.145 53.8622C120.14 54.1418 115.461 54.5023 112.843 56.4125C110.326 58.2394 113.092 61.4272 110.14 63.3375Z" fill="#FBBEBE"/>
<path opacity="0.1" d="M110.14 63.3375C109.178 63.9579 108.057 64.1811 106.965 64.3944L99.9125 65.7676C98.5401 66.0349 97.0957 66.339 96.038 67.3566C93.8745 69.4336 94.3422 73.2566 94.9977 76.366L96.3089 82.6043C97.2967 87.2929 98.3063 92.0379 100.332 96.2851C103.87 103.698 110.361 109.036 117.498 111.609C120.048 112.528 122.742 113.127 125.404 112.798C130.618 112.156 135.079 107.984 137.828 102.97C140.577 97.955 141.886 92.1384 143.086 86.4052C144.237 80.9172 145.332 75.3508 145.258 69.7107C145.236 67.955 145.079 66.1207 144.244 64.6323C142.415 61.3635 138.269 61.1183 134.871 61.7215C134.342 61.8171 133.794 61.9201 133.284 61.7411C131.755 61.2065 131.72 58.85 131.064 57.2144C129.825 54.1295 126.149 53.5827 123.145 53.8622C120.14 54.1418 115.461 54.5023 112.843 56.4125C110.326 58.2394 113.092 61.4272 110.14 63.3375Z" fill="black"/>
<path d="M104.303 70.3656C105.369 72.8766 106.169 75.5397 107.459 77.9159C108.483 79.804 109.797 81.4691 111.104 83.1243C114.489 87.4205 117.917 91.7511 122.107 95.0223C123.842 85.0215 128.033 75.7637 134.207 68.2935C136.012 66.1184 138.271 63.9752 140.92 64.0561C142.563 64.1076 144.08 65.0222 145.448 66.0399C146.978 67.1753 148.424 68.4921 149.524 70.1277C151.261 72.7319 152.011 76.0301 152.146 79.2793C152.282 82.5284 151.831 85.7702 151.386 88.9826L149.091 105.586C148.958 106.548 148.772 107.609 148.073 108.186C147.675 108.468 147.228 108.649 146.761 108.715C138.42 110.537 129.823 109.355 121.324 109.262C111.927 109.162 102.271 110.363 93.3698 107.009C92.9043 106.832 92.4214 106.629 92.1067 106.209C91.9 105.893 91.7514 105.534 91.6696 105.152C89.5958 97.6192 91.2588 89.5245 92.4891 81.7633C93.4633 75.6128 94.1569 69.4105 94.5673 63.1807C94.6045 62.6191 100.103 63.8599 100.717 64.2572C102.389 65.368 103.499 68.4725 104.303 70.3656Z" fill="#FF6366"/>
<g opacity="0.2">
<path opacity="0.2" d="M36.4662 131.631C36.4662 131.744 36.4553 131.854 36.4443 131.962C35.611 131.593 34.7937 131.195 33.9924 130.77C33.5644 130.707 33.1663 130.489 32.8582 130.15C32.6244 130.017 32.3906 129.88 32.1589 129.743C32.2114 129.62 32.2705 129.5 32.3359 129.385C32.7861 128.585 33.4701 128.085 34.2241 128.112C34.978 128.139 35.6314 128.686 36.0357 129.512C36.3449 130.163 36.4935 130.894 36.4662 131.631Z" fill="#3F3D56"/>
<path opacity="0.2" d="M36.5843 127.433C36.5694 128.168 36.3801 128.886 36.0358 129.512C35.5856 130.309 34.9016 130.809 34.1477 130.783L33.9925 130.77C33.5645 130.707 33.1664 130.489 32.8584 130.15C32.6495 129.927 32.4732 129.669 32.3361 129.385C32.0345 128.732 31.887 128.003 31.9077 127.268C31.9283 126.534 32.1164 125.817 32.4541 125.187C32.9043 124.387 33.5883 123.887 34.3422 123.914C35.0961 123.941 35.7495 124.488 36.1538 125.314C36.463 125.965 36.6116 126.696 36.5843 127.433Z" fill="#3F3D56"/>
<path opacity="0.2" d="M36.7021 123.241C36.7555 121.345 35.7524 119.77 34.4617 119.724C33.1709 119.679 32.0813 121.179 32.0279 123.075C31.9744 124.972 32.9775 126.546 34.2683 126.592C35.559 126.638 36.6487 125.138 36.7021 123.241Z" fill="#3F3D56"/>
<path opacity="0.2" d="M36.8215 119.043C36.8749 117.146 35.8718 115.572 34.5811 115.526C33.2903 115.48 32.2006 116.981 32.1472 118.877C32.0938 120.774 33.0969 122.348 34.3877 122.394C35.6784 122.44 36.7681 120.939 36.8215 119.043Z" fill="#3F3D56"/>
<path opacity="0.2" d="M36.9384 114.845C36.9918 112.948 35.9888 111.374 34.698 111.328C33.4072 111.282 32.3176 112.782 32.2642 114.679C32.2108 116.575 33.2138 118.15 34.5046 118.196C35.7953 118.241 36.885 116.741 36.9384 114.845Z" fill="#3F3D56"/>
<path opacity="0.2" d="M26.6606 85.7162C26.3528 85.2487 26.0753 84.757 25.8302 84.2449L32.0059 83.3303L25.3494 83.1537C24.7561 81.5747 24.4562 79.8765 24.4678 78.163C24.4795 76.4495 24.8025 74.7566 25.4171 73.188L34.1846 78.6907L26.1536 71.6186C26.9637 70.1482 28.0354 68.8811 29.3016 67.8964C30.5678 66.9116 32.0013 66.2304 33.5127 65.8952C35.024 65.5601 36.5807 65.5782 38.0855 65.9485C39.5904 66.3188 41.011 67.0333 42.2587 68.0473C43.5064 69.0614 44.5543 70.3532 45.3371 71.8422C46.1199 73.3311 46.6207 74.9851 46.8082 76.701C46.9957 78.4169 46.8659 80.1577 46.4269 81.8147C45.9879 83.4718 45.2491 85.0095 44.2567 86.3317C44.7349 87.0594 45.1416 87.8429 45.4696 88.6687L37.3686 93.0434L45.9635 90.1424C46.5049 92.1457 46.5927 94.2689 46.2187 96.3199C45.8448 98.3708 45.021 100.285 43.8219 101.888C45.0701 103.789 45.8165 106.044 45.9757 108.398C46.1349 110.752 45.7004 113.109 44.7221 115.198C43.7437 117.288 42.2609 119.026 40.4433 120.215C38.6256 121.403 36.5466 121.994 34.4441 121.918C32.3415 121.843 30.3003 121.105 28.5539 119.789C26.8075 118.473 25.4265 116.632 24.5688 114.477C23.7112 112.321 23.4115 109.938 23.7042 107.601C23.9968 105.263 24.8699 103.065 26.2235 101.258C24.7327 98.9878 23.9653 96.221 24.0446 93.4023C24.1238 90.5836 25.0452 87.8766 26.6606 85.7162Z" fill="#FF6366"/>
<path opacity="0.1" d="M46.4379 94.1935C46.3608 97.0144 45.4367 99.7234 43.8155 101.881C45.0654 103.78 45.8136 106.036 45.9743 108.39C46.1351 110.745 45.7019 113.102 44.7245 115.193C43.747 117.284 42.2647 119.023 40.4472 120.213C38.6297 121.403 36.5504 121.994 34.4474 121.92C32.3443 121.845 30.3024 121.108 28.5554 119.792C26.8083 118.476 25.4267 116.635 24.5686 114.479C23.7106 112.323 23.4107 109.94 23.7034 107.602C23.9961 105.264 24.8695 103.065 26.2237 101.258C24.7748 99.066 46.4772 92.7835 46.4379 94.1935Z" fill="black"/>
</g>
<path opacity="0.1" d="M14.8645 39.924C17.4751 39.924 19.5914 37.5493 19.5914 34.62C19.5914 31.6906 17.4751 29.3159 14.8645 29.3159C12.254 29.3159 10.1377 31.6906 10.1377 34.62C10.1377 37.5493 12.254 39.924 14.8645 39.924Z" fill="#FF6366"/>
<path opacity="0.1" d="M34.5652 10.6082C37.1758 10.6082 39.292 8.23345 39.292 5.30408C39.292 2.37472 37.1758 0 34.5652 0C31.9547 0 29.8384 2.37472 29.8384 5.30408C29.8384 8.23345 31.9547 10.6082 34.5652 10.6082Z" fill="#FF6366"/>
<path opacity="0.1" d="M32.9633 34.3331C37.3383 34.3331 40.885 30.3533 40.885 25.4439C40.885 20.5346 37.3383 16.5547 32.9633 16.5547C28.5882 16.5547 25.0415 20.5346 25.0415 25.4439C25.0415 30.3533 28.5882 34.3331 32.9633 34.3331Z" fill="#FF6366"/>
<path d="M118.663 66.0865C128.801 66.0865 137.019 56.8643 137.019 45.4881C137.019 34.1119 128.801 24.8897 118.663 24.8897C108.524 24.8897 100.306 34.1119 100.306 45.4881C100.306 56.8643 108.524 66.0865 118.663 66.0865Z" fill="#FBBEBE"/>
<path d="M111.207 5.06868C106.309 5.7651 101.023 6.68467 97.5615 10.6327C95.6253 12.8397 94.4911 15.7823 93.558 18.6955C92.1113 23.232 91.0339 28.0138 91.3726 32.8275C91.6742 37.1335 93.0947 41.5376 91.9452 45.6622C91.4163 47.5602 90.3783 49.2179 89.5719 50.9859C88.0772 54.2694 87.3735 57.9501 87.1157 61.6259C86.9365 64.1542 86.9714 66.7559 87.7122 69.1517C88.5011 71.702 90.0396 73.8722 91.0143 76.3391C92.4566 79.983 92.6008 84.0831 92.7122 88.0679C92.8237 92.0527 92.9177 96.0105 93.0007 99.9806C93.0532 102.477 93.0575 105.15 91.8272 107.232C96.3705 105.189 100.977 103.105 104.865 99.7697C108.752 96.4348 111.899 91.626 112.402 86.1625C112.808 81.7339 111.475 77.369 110.326 73.1071C107.485 62.5627 105.649 51.3219 107.717 40.5543C108.462 36.6774 110.273 32.3493 113.75 31.6357C115.872 31.2017 117.99 32.288 119.902 33.4111C124.421 36.0643 129.08 39.4974 130.763 44.8996C132.293 49.7843 131.005 55.2257 129.015 59.8898C127.024 64.5539 124.314 68.8427 122.767 73.7177C120.391 81.1969 121.06 89.9536 125.007 96.5427C128.953 103.132 136.246 107.185 143.259 106.121C142.71 103.463 140.99 101.315 140.068 98.7889C138.392 94.2008 139.522 88.9237 141.325 84.397C143.127 79.8702 145.588 75.65 146.716 70.8437C147.511 67.4597 147.607 63.9236 147.603 60.4244C147.603 54.9168 147.36 49.4067 146.888 43.9236C146.416 38.4405 145.695 32.8888 144.139 27.6141C142.889 23.3841 141.069 19.2938 138.346 16.0496C135.448 12.5944 131.676 10.2526 127.972 7.95736C125.756 6.58904 123.492 5.20355 121.005 4.69105C119.039 4.28644 116.971 3.71017 114.965 3.67339C113.602 3.65132 112.168 3.98236 111.207 5.06868Z" fill="#434175"/>
<path d="M77.935 150.508L80.0744 90.9517C80.1084 90.005 80.4697 89.1104 81.0817 88.4576C81.6936 87.8048 82.5081 87.4451 83.3523 87.4548L167.819 88.3621C168.267 88.3673 168.708 88.4763 169.117 88.6821C169.525 88.888 169.891 89.1864 170.192 89.5585C170.492 89.9306 170.721 90.3684 170.864 90.8445C171.006 91.3205 171.06 91.8246 171.021 92.3249L166.558 149.38C166.488 150.277 166.124 151.113 165.537 151.727C164.95 152.342 164.181 152.69 163.379 152.705L81.237 154.299C80.7948 154.307 80.3557 154.214 79.9466 154.026C79.5376 153.837 79.1671 153.557 78.858 153.202C78.5489 152.847 78.3076 152.425 78.1488 151.962C77.9901 151.499 77.9173 151.004 77.935 150.508Z" fill="#3F3D56"/>
<path d="M125.109 119.422C127.161 119.422 128.824 117.226 128.824 114.517C128.824 111.809 127.161 109.613 125.109 109.613C123.058 109.613 121.394 111.809 121.394 114.517C121.394 117.226 123.058 119.422 125.109 119.422Z" fill="#FF6366"/>
<path d="M204.546 111.148L204.371 112.83L201.53 140.015C194.124 145.81 188.363 140.241 188.313 140.015L184.734 112.703L184.53 111.148H204.546Z" fill="#3F3D56"/>
<path opacity="0.1" d="M204.546 111.148L204.371 112.83C196.027 118.274 187.126 114.037 184.734 112.703L184.53 111.148H204.546Z" fill="black"/>
<path d="M184.113 109.672V112.124C184.113 112.124 195.149 119.323 205.092 112.124V109.672H184.113Z" fill="#FF6366"/>
<path d="M185.396 106.432C185.396 106.432 185.074 108.088 184.113 108.232V110.319H205.092V108.448C205.092 108.448 203.809 108.088 203.999 106.432H185.396Z" fill="#FF6366"/>
<path d="M194.539 109.672C199.765 109.672 204.001 108.302 204.001 106.611C204.001 104.921 199.765 103.551 194.539 103.551C189.313 103.551 185.076 104.921 185.076 106.611C185.076 108.302 189.313 109.672 194.539 109.672Z" fill="#FF6366"/>
<path opacity="0.1" d="M194.539 109.672C199.765 109.672 204.001 108.302 204.001 106.611C204.001 104.921 199.765 103.551 194.539 103.551C189.313 103.551 185.076 104.921 185.076 106.611C185.076 108.302 189.313 109.672 194.539 109.672Z" fill="black"/>
<path opacity="0.1" d="M202.845 106.432C202.845 107.658 199.257 108.664 194.828 108.664H194.591C191.617 108.639 189.047 108.173 187.736 107.477C187.144 107.163 186.807 106.808 186.807 106.432C186.807 105.809 187.725 105.245 189.211 104.841C191.058 104.388 192.944 104.173 194.834 104.201C199.257 104.201 202.845 105.199 202.845 106.432Z" fill="black"/>
<path opacity="0.1" d="M194.591 108.664C191.617 108.639 189.047 108.173 187.736 107.477L189.204 104.831L194.591 108.664Z" fill="black"/>
<path opacity="0.1" d="M186.211 106.604C186.097 106.577 185.946 106.621 185.924 106.749C185.922 106.814 185.937 106.878 185.968 106.933C186.219 107.377 186.583 107.727 187.013 107.936C187.086 107.982 187.167 108.011 187.251 108.021C187.295 108.027 187.339 108.018 187.378 107.995C187.417 107.973 187.449 107.937 187.469 107.894C187.482 107.857 187.486 107.817 187.484 107.778C187.481 107.739 187.471 107.7 187.454 107.666C187.387 107.533 187.295 107.419 187.183 107.332C186.89 107.075 186.591 106.675 186.211 106.604Z" fill="black"/>
<path d="M194.858 132.815C197.976 132.815 200.503 129.98 200.503 126.481C200.503 122.983 197.976 120.147 194.858 120.147C191.741 120.147 189.213 122.983 189.213 126.481C189.213 129.98 191.741 132.815 194.858 132.815Z" fill="#FF6366"/>
<path d="M41.1559 126.496H43.8023C45.2513 126.496 46.6409 127.142 47.6655 128.292C48.69 129.441 49.2656 131.001 49.2656 132.627V141.736H35.6926V132.627C35.6926 131.001 36.2682 129.441 37.2928 128.292C38.3174 127.142 39.707 126.496 41.1559 126.496Z" fill="#3F3D56"/>
<path opacity="0.1" d="M41.1559 126.496H43.8023C45.2513 126.496 46.6409 127.142 47.6655 128.292C48.69 129.441 49.2656 131.001 49.2656 132.627V141.736H35.6926V132.627C35.6926 131.001 36.2682 129.441 37.2928 128.292C38.3174 127.142 39.707 126.496 41.1559 126.496Z" fill="black"/>
<path d="M41.9362 129.848C42.536 129.848 43.0223 129.303 43.0223 128.63C43.0223 127.956 42.536 127.411 41.9362 127.411C41.3364 127.411 40.8501 127.956 40.8501 128.63C40.8501 129.303 41.3364 129.848 41.9362 129.848Z" fill="#3F3D56"/>
<path d="M41.9362 128.325C42.536 128.325 43.0223 127.78 43.0223 127.107C43.0223 126.434 42.536 125.888 41.9362 125.888C41.3364 125.888 40.8501 126.434 40.8501 127.107C40.8501 127.78 41.3364 128.325 41.9362 128.325Z" fill="#3F3D56"/>
<path d="M41.9362 126.8C42.536 126.8 43.0223 126.255 43.0223 125.581C43.0223 124.908 42.536 124.363 41.9362 124.363C41.3364 124.363 40.8501 124.908 40.8501 125.581C40.8501 126.255 41.3364 126.8 41.9362 126.8Z" fill="#3F3D56"/>
<path d="M41.9362 125.277C42.536 125.277 43.0223 124.732 43.0223 124.059C43.0223 123.386 42.536 122.84 41.9362 122.84C41.3364 122.84 40.8501 123.386 40.8501 124.059C40.8501 124.732 41.3364 125.277 41.9362 125.277Z" fill="#3F3D56"/>
<path d="M41.9362 123.755C42.536 123.755 43.0223 123.209 43.0223 122.536C43.0223 121.863 42.536 121.317 41.9362 121.317C41.3364 121.317 40.8501 121.863 40.8501 122.536C40.8501 123.209 41.3364 123.755 41.9362 123.755Z" fill="#3F3D56"/>
<path d="M41.9362 122.232C42.536 122.232 43.0223 121.686 43.0223 121.013C43.0223 120.34 42.536 119.794 41.9362 119.794C41.3364 119.794 40.8501 120.34 40.8501 121.013C40.8501 121.686 41.3364 122.232 41.9362 122.232Z" fill="#3F3D56"/>
<path d="M41.9362 120.709C42.536 120.709 43.0223 120.163 43.0223 119.49C43.0223 118.817 42.536 118.271 41.9362 118.271C41.3364 118.271 40.8501 118.817 40.8501 119.49C40.8501 120.163 41.3364 120.709 41.9362 120.709Z" fill="#3F3D56"/>
<path d="M43.5666 121.317C44.1664 121.317 44.6527 120.771 44.6527 120.098C44.6527 119.425 44.1664 118.88 43.5666 118.88C42.9667 118.88 42.4805 119.425 42.4805 120.098C42.4805 120.771 42.9667 121.317 43.5666 121.317Z" fill="#3F3D56"/>
<path d="M44.6525 120.709C45.2524 120.709 45.7386 120.163 45.7386 119.49C45.7386 118.817 45.2524 118.271 44.6525 118.271C44.0527 118.271 43.5664 118.817 43.5664 119.49C43.5664 120.163 44.0527 120.709 44.6525 120.709Z" fill="#3F3D56"/>
<path d="M45.7387 120.098C46.3385 120.098 46.8248 119.553 46.8248 118.88C46.8248 118.207 46.3385 117.661 45.7387 117.661C45.1389 117.661 44.6526 118.207 44.6526 118.88C44.6526 119.553 45.1389 120.098 45.7387 120.098Z" fill="#3F3D56"/>
<path d="M41.9362 119.186C42.536 119.186 43.0223 118.641 43.0223 117.967C43.0223 117.294 42.536 116.749 41.9362 116.749C41.3364 116.749 40.8501 117.294 40.8501 117.967C40.8501 118.641 41.3364 119.186 41.9362 119.186Z" fill="#3F3D56"/>
<path d="M41.9362 117.663C42.536 117.663 43.0223 117.118 43.0223 116.445C43.0223 115.771 42.536 115.226 41.9362 115.226C41.3364 115.226 40.8501 115.771 40.8501 116.445C40.8501 117.118 41.3364 117.663 41.9362 117.663Z" fill="#3F3D56"/>
<path d="M41.9362 116.138C42.536 116.138 43.0223 115.592 43.0223 114.919C43.0223 114.246 42.536 113.701 41.9362 113.701C41.3364 113.701 40.8501 114.246 40.8501 114.919C40.8501 115.592 41.3364 116.138 41.9362 116.138Z" fill="#3F3D56"/>
<path d="M41.9362 114.615C42.536 114.615 43.0223 114.07 43.0223 113.397C43.0223 112.723 42.536 112.178 41.9362 112.178C41.3364 112.178 40.8501 112.723 40.8501 113.397C40.8501 114.07 41.3364 114.615 41.9362 114.615Z" fill="#3F3D56"/>
<path d="M46.4379 109.468C46.1691 109.512 45.8981 109.544 45.6271 109.564C45.88 109.316 46.1146 109.045 46.3286 108.755C46.1774 108.243 45.9562 107.76 45.673 107.325C45.4038 107.495 45.1062 107.6 44.7989 107.634C44.5301 107.678 44.2591 107.71 43.9881 107.732C44.3443 107.406 44.6765 106.915 45.0262 106.506C44.2181 105.684 43.1763 105.21 42.0862 105.168C40.996 105.127 39.9281 105.521 39.0724 106.28C38.2167 107.039 37.6286 108.114 37.4127 109.314C37.1968 110.513 37.3672 111.76 37.8935 112.832C38.4197 113.904 39.2678 114.732 40.2869 115.169C41.306 115.605 42.43 115.622 43.459 115.216C44.4881 114.81 45.3554 114.008 45.9069 112.952C46.4583 111.896 46.6581 110.654 46.4707 109.449L46.4379 109.468Z" fill="#FF6366"/>
<path d="M50.0678 115.523C49.7907 115.713 49.4781 115.83 49.1544 115.863C48.8856 115.908 48.6146 115.942 48.3436 115.962C48.6316 115.672 48.9004 115.359 49.1478 115.025C48.493 114.833 47.798 114.923 47.1988 115.275C46.5995 115.628 46.1391 116.219 45.9075 116.933C45.676 117.646 45.6899 118.431 45.9465 119.134C46.2032 119.836 46.6842 120.406 47.2954 120.732C47.9067 121.058 48.6042 121.116 49.2518 120.896C49.8993 120.675 50.4502 120.191 50.7968 119.539C51.1434 118.887 51.2608 118.113 51.126 117.369C50.9912 116.625 50.6138 115.964 50.0678 115.515V115.523Z" fill="#FF6366"/>
<path d="M40.3083 121.317C40.9081 121.317 41.3944 120.771 41.3944 120.098C41.3944 119.425 40.9081 118.88 40.3083 118.88C39.7084 118.88 39.2222 119.425 39.2222 120.098C39.2222 120.771 39.7084 121.317 40.3083 121.317Z" fill="#3F3D56"/>
<path d="M39.2221 120.709C39.8219 120.709 40.3082 120.163 40.3082 119.49C40.3082 118.817 39.8219 118.271 39.2221 118.271C38.6223 118.271 38.136 118.817 38.136 119.49C38.136 120.163 38.6223 120.709 39.2221 120.709Z" fill="#3F3D56"/>
<path d="M38.1359 120.098C38.7357 120.098 39.222 119.553 39.222 118.88C39.222 118.207 38.7357 117.661 38.1359 117.661C37.5361 117.661 37.0498 118.207 37.0498 118.88C37.0498 119.553 37.5361 120.098 38.1359 120.098Z" fill="#3F3D56"/>
<path d="M33.8067 115.523C34.0837 115.714 34.3964 115.83 34.7202 115.863C34.989 115.908 35.26 115.942 35.531 115.962C35.2424 115.672 34.9736 115.359 34.7268 115.025C35.3816 114.833 36.0766 114.923 36.6758 115.275C37.275 115.628 37.7354 116.219 37.967 116.933C38.1986 117.646 38.1847 118.431 37.928 119.134C37.6714 119.836 37.1904 120.406 36.5791 120.732C35.9679 121.058 35.2703 121.116 34.6228 120.896C33.9753 120.675 33.4243 120.191 33.0777 119.539C32.7311 118.887 32.6138 118.113 32.7486 117.369C32.8834 116.625 33.2607 115.964 33.8067 115.515V115.523Z" fill="#FF6366"/>
<path d="M41.1559 127.411H43.8023C45.2513 127.411 46.6409 128.057 47.6655 129.206C48.69 130.356 49.2656 131.915 49.2656 133.541V141.602C49.2656 141.877 49.168 142.142 48.9942 142.337C48.8205 142.532 48.5848 142.641 48.3391 142.641H36.6192C36.3735 142.641 36.1378 142.532 35.964 142.337C35.7902 142.142 35.6926 141.877 35.6926 141.602V133.541C35.6926 131.915 36.2682 130.356 37.2928 129.206C38.3174 128.057 39.707 127.411 41.1559 127.411Z" fill="#3F3D56"/>
<g opacity="0.1">
<path opacity="0.1" d="M46.5208 109.802C46.4108 109.933 46.2941 110.058 46.1711 110.174C46.2957 110.174 46.4181 110.152 46.5427 110.138C46.547 110.025 46.5317 109.912 46.5208 109.802Z" fill="black"/>
<path opacity="0.1" d="M44.541 108.345C44.8142 108.325 45.083 108.294 45.3539 108.249C45.5971 108.215 45.8347 108.142 46.0598 108.034C45.9498 107.788 45.8226 107.553 45.6796 107.33C45.5436 107.423 45.3964 107.493 45.2425 107.538C45.0282 107.828 44.7936 108.098 44.541 108.345Z" fill="black"/>
<path opacity="0.1" d="M37.865 110.962C37.8633 110.032 38.0852 109.119 38.5071 108.319C38.9291 107.519 39.5355 106.861 40.2626 106.415C40.9896 105.969 41.8103 105.752 42.6383 105.786C43.4663 105.819 44.2708 106.103 44.9672 106.606L45.0372 106.523C44.5827 106.069 44.0526 105.721 43.4776 105.498C42.9026 105.275 42.294 105.182 41.6868 105.224C41.0796 105.267 40.4858 105.443 39.9398 105.744C39.3937 106.045 38.9061 106.464 38.505 106.978C38.1039 107.491 37.7974 108.088 37.6029 108.735C37.4085 109.382 37.3301 110.065 37.3721 110.746C37.4142 111.427 37.5759 112.092 37.8481 112.703C38.1202 113.313 38.4973 113.858 38.9576 114.304C38.2509 113.371 37.8635 112.186 37.865 110.962Z" fill="black"/>
</g>
<g opacity="0.1">
<path opacity="0.1" d="M48.3435 116.57C48.6145 116.55 48.8855 116.518 49.1543 116.474C49.4782 116.44 49.7907 116.322 50.0677 116.131C50.3745 116.384 50.6304 116.707 50.8186 117.079C51.0069 117.451 51.1233 117.863 51.1604 118.289C51.171 118.182 51.1761 118.075 51.1757 117.967C51.1777 117.491 51.0799 117.021 50.8901 116.595C50.7003 116.169 50.4238 115.799 50.083 115.515C49.8059 115.706 49.4933 115.823 49.1696 115.856L48.951 115.888C48.7645 116.132 48.5614 116.36 48.3435 116.57Z" fill="black"/>
<path opacity="0.1" d="M48.4527 115.53C48.5433 115.531 48.6338 115.538 48.7237 115.552C48.8657 115.383 49.0056 115.201 49.1476 115.025C48.7459 114.904 48.3248 114.889 47.917 114.981C47.5093 115.072 47.1257 115.268 46.7961 115.552C46.4665 115.837 46.1997 116.203 46.0163 116.621C45.8329 117.04 45.7379 117.501 45.7385 117.967C45.7385 118.07 45.7385 118.171 45.7516 118.271C45.8188 117.52 46.1324 116.823 46.6315 116.317C47.1306 115.81 47.7797 115.53 48.4527 115.53Z" fill="black"/>
</g>
<g opacity="0.1">
<path opacity="0.1" d="M35.5312 116.57C35.2602 116.55 34.9892 116.518 34.7204 116.474C34.3964 116.44 34.0838 116.323 33.807 116.131C33.5001 116.384 33.2443 116.707 33.056 117.079C32.8678 117.451 32.7514 117.863 32.7143 118.289C32.7037 118.182 32.6986 118.075 32.699 117.967C32.6969 117.491 32.7948 117.021 32.9846 116.595C33.1744 116.169 33.4509 115.799 33.7917 115.515C34.0686 115.706 34.3813 115.823 34.7051 115.856L34.9237 115.888C35.109 116.134 35.3122 116.362 35.5312 116.57Z" fill="black"/>
<path opacity="0.1" d="M35.422 115.53C35.3306 115.531 35.2394 115.538 35.1488 115.552C35.009 115.383 34.8691 115.201 34.7271 115.025C35.1288 114.904 35.5499 114.889 35.9576 114.981C36.3654 115.072 36.7489 115.268 37.0785 115.552C37.4081 115.837 37.675 116.203 37.8584 116.621C38.0418 117.04 38.1368 117.501 38.1361 117.967C38.1361 118.07 38.1361 118.171 38.123 118.271C38.0558 117.52 37.7423 116.823 37.2431 116.317C36.744 115.81 36.095 115.53 35.422 115.53Z" fill="black"/>
</g>
</g>
<defs>
<clipPath id="clip0">
<rect width="250" height="156.204" fill="white"/>
</clipPath>
</defs>
</svg>
