<svg width="705" height="671" viewBox="0 0 705 671" fill="none" xmlns="http://www.w3.org/2000/svg">
<path opacity="0.1" d="M571.489 635.011C621.278 635.011 661.639 627.507 661.639 618.25C661.639 608.993 621.278 601.489 571.489 601.489C521.701 601.489 481.34 608.993 481.34 618.25C481.34 627.507 521.701 635.011 571.489 635.011Z" fill="#FF6366"/>
<path opacity="0.1" d="M298.538 612.062C372.248 612.062 432.003 607.493 432.003 601.858C432.003 596.222 372.248 591.653 298.538 591.653C224.827 591.653 165.072 596.222 165.072 601.858C165.072 607.493 224.827 612.062 298.538 612.062Z" fill="#FF6366"/>
<path opacity="0.1" d="M218.117 26.2358C242.02 3.21285 279.542 -1.47533 313.666 0.360604C420.924 6.09789 517.739 62.0856 601.489 125.384C631.822 148.333 661.654 172.995 681.333 204.559C721.395 268.8 709.512 357.826 653.805 410.716C634.847 428.747 611.878 442.525 588.286 454.762C546.351 476.522 501.079 493.988 453.501 498.955C419.559 502.504 385.191 499.619 351.446 494.677C257.171 480.858 164.632 450.295 87.0861 398.012C53.0676 375.063 20.998 346.573 6.97659 309.494C-7.04485 272.414 1.93372 225.385 36.665 203.428C51.0732 194.346 68.2114 190.248 85.031 186.396C109.783 180.724 134.936 175.135 157.277 163.611C180.36 151.694 207.66 128.671 203.11 102.329C198.181 74.0437 194.245 49.2259 218.117 26.2358Z" fill="#FF6366"/>
<g opacity="0.1">
<path opacity="0.1" d="M308.373 529.748C311.285 535.1 315.85 538.551 320.992 538.551C329.773 538.551 336.916 528.494 336.916 516.077C336.916 503.66 329.75 493.685 320.992 493.685C316.859 493.685 313.09 495.914 310.261 499.578C309.189 500.98 308.279 502.518 307.554 504.16L307.402 505.135C307.402 505.135 304.013 508.266 299.394 505.389V432.591H233.633C233.101 431.838 232.75 430.955 232.611 430.019C232.472 429.084 232.549 428.126 232.836 427.231C233.327 425.567 234.388 424.169 235.801 423.321C240.753 420.174 243.953 415.24 243.953 409.683C243.953 400.192 234.641 392.471 223.16 392.471C211.679 392.471 202.367 400.167 202.367 409.683C202.367 414.15 204.437 418.232 207.827 421.289C209.122 422.444 210.543 423.423 212.058 424.207L212.149 424.37C213.144 425.411 213.803 426.768 214.031 428.243C214.259 429.718 214.043 431.234 213.416 432.567H183.757V567.376C183.757 575.854 186.873 583.984 192.42 589.979C197.966 595.974 205.488 599.341 213.332 599.341H299.417V527.806C300.119 527.086 300.991 526.59 301.937 526.373C302.884 526.156 303.867 526.226 304.779 526.576C306.308 527.099 307.594 528.233 308.373 529.748Z" fill="black"/>
<path opacity="0.1" d="M197.695 429.755H207.994C205.49 427.676 203.457 425.008 202.05 421.954C200.643 418.899 199.898 415.538 199.872 412.125C199.872 399.348 210.185 388.996 222.902 388.996C235.619 388.996 245.94 399.348 245.94 412.125C245.914 415.538 245.169 418.899 243.762 421.954C242.355 425.008 240.322 427.676 237.818 429.755H299.546V357.933C300.252 357.22 301.124 356.729 302.069 356.512C303.013 356.296 303.995 356.362 304.908 356.703C306.451 357.23 307.749 358.377 308.532 359.908C311.437 365.26 316.002 368.711 321.151 368.711C329.932 368.711 337.076 358.654 337.076 346.245C337.076 333.836 329.963 323.771 321.151 323.771C317.01 323.771 313.242 326.009 310.413 329.664C309.344 331.068 308.435 332.607 307.706 334.246L307.562 334.344C306.545 335.491 305.198 336.23 303.741 336.44C302.285 336.65 300.805 336.319 299.546 335.5V262.718H236.234C235.702 261.965 235.351 261.082 235.212 260.146C235.073 259.211 235.15 258.253 235.437 257.358C235.925 255.692 236.987 254.292 238.402 253.449C243.354 250.309 246.547 245.367 246.547 239.81C246.547 230.319 237.242 222.598 225.761 222.598C214.28 222.598 204.968 230.295 204.968 239.81C204.968 244.285 207.038 248.359 210.42 251.416C211.719 252.572 213.143 253.554 214.659 254.342L214.75 254.498C215.745 255.538 216.404 256.895 216.632 258.37C216.86 259.846 216.644 261.361 216.017 262.694H197.695V259.006H211.224C208.725 256.93 206.696 254.266 205.291 251.218C203.885 248.169 203.139 244.815 203.11 241.408C203.11 228.631 213.423 218.271 226.148 218.271C238.873 218.271 249.178 228.631 249.178 241.408C249.148 244.822 248.398 248.184 246.986 251.237C245.573 254.291 243.535 256.956 241.026 259.03H299.493V186.331C300.197 185.612 301.07 185.116 302.018 184.9C302.965 184.683 303.949 184.752 304.862 185.101C306.402 185.631 307.697 186.777 308.479 188.306C311.384 193.658 315.956 197.108 321.098 197.108C329.879 197.108 337.023 187.052 337.023 174.635C337.023 162.218 329.91 152.169 321.098 152.169C316.957 152.169 313.188 154.398 310.36 158.062C309.287 159.464 308.378 161.002 307.653 162.644L307.509 163.619C307.509 163.619 304.119 166.75 299.493 163.873V96.0667H213.446C205.602 96.0667 198.08 99.4344 192.533 105.429C186.987 111.424 183.871 119.554 183.871 128.032V162.636H183.424C182.963 162.636 182.522 162.833 182.196 163.185C181.87 163.537 181.687 164.015 181.687 164.512V180.905C181.689 181.402 181.873 181.878 182.198 182.229C182.523 182.581 182.964 182.779 183.424 182.782H183.871V199.518H183.287C182.826 199.518 182.384 199.716 182.057 200.067C181.73 200.419 181.545 200.896 181.543 201.395V232.696C181.545 233.195 181.73 233.672 182.057 234.024C182.384 234.375 182.826 234.573 183.287 234.573H183.871V246.867H183.393C182.933 246.867 182.491 247.065 182.166 247.417C181.84 247.769 181.657 248.246 181.657 248.744V258.825H181.278V280.07C181.277 280.316 181.321 280.561 181.408 280.789C181.495 281.017 181.623 281.225 181.784 281.399C181.946 281.574 182.137 281.712 182.349 281.806C182.56 281.9 182.786 281.948 183.014 281.946H183.53V429.755H197.695Z" fill="black"/>
<path opacity="0.1" d="M422.713 212.148C422.713 211.65 422.531 211.172 422.205 210.818C421.88 210.465 421.438 210.265 420.977 210.263H419.93V208.206H419.362V126.45C419.363 122.413 418.628 118.416 417.199 114.686C415.77 110.957 413.676 107.568 411.035 104.714C408.394 101.86 405.259 99.5959 401.808 98.0516C398.357 96.5074 394.659 95.7132 390.924 95.7142H305.613V158.005C307.561 155.21 310.081 152.938 312.974 151.367C315.868 149.796 319.058 148.969 322.296 148.948C334.209 148.948 343.87 160.103 343.87 173.856C343.87 187.609 334.209 198.764 322.296 198.764C319.058 198.745 315.867 197.917 312.973 196.346C310.08 194.775 307.561 192.503 305.613 189.707V258.825H374.62C372.12 256.74 370.091 254.068 368.687 251.011C367.282 247.954 366.539 244.592 366.514 241.179C366.514 228.385 376.804 218.017 389.506 218.017C395.152 217.983 400.625 220.115 404.953 224.033C407.329 226.084 409.247 228.687 410.565 231.649C411.883 234.611 412.568 237.855 412.568 241.142C412.568 244.429 411.883 247.673 410.565 250.635C409.247 253.597 407.329 256.2 404.953 258.251V258.801H419.93V258.743H422.713V212.148Z" fill="black"/>
<path opacity="0.1" d="M399.804 426.075V417.879C400.117 417.386 400.403 416.875 400.661 416.347C401.677 414.349 402.214 412.109 402.223 409.831C402.221 408.311 401.98 406.804 401.511 405.372C401.097 404.096 400.523 402.889 399.804 401.782C396.309 396.348 389.4 392.643 381.438 392.643C369.949 392.643 360.644 400.339 360.644 409.855C360.644 414.33 362.715 418.404 366.097 421.461C367.396 422.617 368.819 423.599 370.336 424.387L370.427 424.543C371.42 425.583 372.079 426.941 372.307 428.416C372.535 429.891 372.32 431.406 371.693 432.739H304.794V499.947C306.715 497.169 309.205 494.909 312.069 493.345C314.933 491.781 318.094 490.955 321.303 490.931C333.125 490.931 342.702 502.078 342.702 515.823C342.702 529.568 333.125 540.723 321.303 540.723C318.094 540.699 314.933 539.873 312.069 538.309C309.205 536.745 306.715 534.485 304.794 531.707V585.957H381.559C386.39 585.957 391.024 583.886 394.444 580.199C397.865 576.511 399.792 571.508 399.804 566.286V432.763V566.196C399.804 571.426 397.882 576.442 394.46 580.14C391.039 583.838 386.398 585.916 381.559 585.916H304.794V599.03H384.418C392.262 599.03 399.784 595.662 405.33 589.667C410.877 583.673 413.993 575.543 413.993 567.065V432.763V429.239H399.804V426.075Z" fill="black"/>
</g>
<path d="M216.949 582.908C212.11 582.908 207.47 580.831 204.048 577.132C200.626 573.434 198.704 568.418 198.704 563.188V429.313H184.516V564.098C184.516 572.576 187.632 580.706 193.178 586.701C198.724 592.695 206.247 596.063 214.09 596.063H300.176V582.949L216.949 582.908Z" fill="#3A3768"/>
<path d="M305.484 523.298C307.026 523.823 308.322 524.97 309.101 526.502C312.013 531.854 316.578 535.305 321.72 535.305C330.501 535.305 337.644 525.248 337.644 512.831C337.644 500.414 330.509 490.407 321.75 490.407C317.617 490.407 313.848 492.636 311.02 496.3C309.947 497.701 309.038 499.24 308.312 500.881L308.161 501.857C308.161 501.857 304.771 504.988 300.153 502.111V429.313H234.391C233.859 428.56 233.508 427.676 233.369 426.741C233.23 425.806 233.308 424.848 233.595 423.952C234.086 422.288 235.146 420.89 236.56 420.043C241.511 416.896 244.712 411.962 244.712 406.405C244.712 396.913 235.399 389.193 223.918 389.193C212.437 389.193 203.125 396.889 203.125 406.405C203.125 410.871 205.195 414.953 208.585 418.01C209.881 419.165 211.302 420.145 212.816 420.928L212.907 421.092C213.902 422.132 214.562 423.489 214.79 424.965C215.017 426.44 214.802 427.955 214.174 429.288H198.704V563.188C198.704 568.418 200.626 573.434 204.048 577.132C207.47 580.83 212.11 582.908 216.949 582.908H300.176V524.527C300.872 523.818 301.735 523.328 302.671 523.111C303.607 522.895 304.58 522.959 305.484 523.298Z" fill="#FF6366"/>
<path d="M184.266 255.481H182.013V259.448H184.266V255.481Z" fill="#3A3768"/>
<path d="M198.454 255.481H186.146V259.448H198.454V255.481Z" fill="#3A3768"/>
<path d="M186.146 255.481H184.266V259.448H186.146V255.481Z" fill="#3A3768"/>
<path d="M183.75 278.602H184.265V259.44H181.99V276.726C181.989 276.974 182.034 277.221 182.123 277.451C182.211 277.681 182.341 277.889 182.505 278.064C182.669 278.239 182.863 278.376 183.077 278.469C183.291 278.561 183.52 278.607 183.75 278.602Z" fill="#3A3768"/>
<path d="M198.454 259.44H186.146V276.726C186.146 276.973 186.101 277.217 186.013 277.446C185.926 277.674 185.797 277.881 185.635 278.056C185.473 278.23 185.28 278.368 185.069 278.462C184.857 278.556 184.631 278.604 184.402 278.602H184.266V426.477H198.454V259.44Z" fill="#3A3768"/>
<path d="M184.266 278.602H184.402C184.631 278.604 184.857 278.556 185.069 278.462C185.28 278.368 185.473 278.23 185.635 278.056C185.797 277.881 185.925 277.674 186.013 277.446C186.101 277.217 186.146 276.973 186.146 276.726V259.44H184.266V278.602Z" fill="#3A3768"/>
<path d="M200.63 408.814C200.63 396.037 210.943 385.685 223.66 385.685C236.378 385.685 246.698 396.037 246.698 408.814C246.677 412.232 245.934 415.6 244.527 418.661C243.119 421.721 241.084 424.395 238.577 426.477H300.304V354.654C301.01 353.942 301.882 353.451 302.827 353.234C303.772 353.017 304.753 353.083 305.666 353.425C307.209 353.952 308.507 355.099 309.291 356.63C312.195 361.982 316.76 365.432 321.909 365.432C330.691 365.432 337.834 355.376 337.834 342.967C337.834 330.558 330.721 320.493 321.909 320.493C317.769 320.493 314 322.731 311.171 326.386C310.102 327.79 309.193 329.328 308.464 330.968L308.32 331.066C307.303 332.213 305.956 332.952 304.5 333.162C303.043 333.372 301.564 333.04 300.304 332.222V259.44H236.992C236.46 258.687 236.109 257.804 235.97 256.868C235.831 255.933 235.909 254.975 236.196 254.08C236.683 252.414 237.745 251.014 239.161 250.17C244.113 247.031 247.305 242.089 247.305 236.532C247.305 227.041 238 219.32 226.519 219.32C215.038 219.32 205.726 227.016 205.726 236.532C205.726 241.007 207.796 245.08 211.178 248.138C212.478 249.293 213.901 250.276 215.417 251.064L215.508 251.219C216.503 252.259 217.163 253.617 217.391 255.092C217.619 256.567 217.403 258.083 216.775 259.416H198.454V426.477H208.752C206.244 424.395 204.209 421.721 202.802 418.661C201.394 415.6 200.652 412.232 200.63 408.814Z" fill="#FF6366"/>
<path d="M186.525 245.13C186.525 244.882 186.48 244.638 186.392 244.409C186.305 244.181 186.176 243.974 186.014 243.8C185.852 243.625 185.66 243.487 185.448 243.393C185.236 243.299 185.01 243.252 184.781 243.253H184.645V255.481H186.525V245.13Z" fill="#3A3768"/>
<path d="M184.576 159.341H184.197C183.969 159.341 183.743 159.389 183.533 159.484C183.322 159.578 183.131 159.716 182.969 159.891C182.808 160.065 182.68 160.272 182.593 160.499C182.506 160.727 182.461 160.971 182.461 161.218V177.61C182.463 178.107 182.646 178.583 182.972 178.935C183.297 179.286 183.737 179.485 184.197 179.487H184.645V159.349L184.576 159.341Z" fill="#3A3768"/>
<path d="M184.061 196.207C183.599 196.207 183.157 196.404 182.83 196.756C182.503 197.108 182.319 197.585 182.317 198.084V229.385C182.319 229.883 182.503 230.361 182.83 230.712C183.157 231.064 183.599 231.262 184.061 231.262H184.645V196.207H184.061Z" fill="#3A3768"/>
<path d="M184.645 243.523H184.152C183.691 243.523 183.249 243.721 182.924 244.073C182.598 244.425 182.415 244.902 182.415 245.4V255.752H184.69L184.645 243.523Z" fill="#3A3768"/>
<path d="M184.645 124.745V159.349C185.093 159.366 185.517 159.57 185.828 159.919C186.139 160.268 186.313 160.733 186.313 161.218V177.61C186.311 178.094 186.137 178.558 185.826 178.907C185.515 179.255 185.092 179.46 184.645 179.479V196.215H184.91C185.138 196.215 185.364 196.264 185.575 196.358C185.785 196.452 185.977 196.591 186.138 196.765C186.299 196.939 186.427 197.146 186.514 197.374C186.602 197.602 186.647 197.846 186.647 198.092V229.393C186.647 229.891 186.464 230.368 186.138 230.72C185.812 231.072 185.371 231.27 184.91 231.27H184.63V243.564H184.766C185.227 243.564 185.67 243.762 185.997 244.113C186.324 244.465 186.508 244.943 186.51 245.441V255.752H198.818V125.679C198.818 120.451 200.739 115.436 204.159 111.738C207.579 108.04 212.218 105.962 217.056 105.96H241.785V109.385C241.785 113.692 243.367 117.821 246.184 120.866C249.002 123.911 252.823 125.622 256.807 125.622H300.312V114.901H280.285C279.51 114.897 278.768 114.564 278.219 113.974C277.67 113.383 277.358 112.583 277.35 111.746V111.057C277.352 110.217 277.662 109.411 278.212 108.817C278.762 108.223 279.507 107.888 280.285 107.886H300.274V92.7883H214.204C206.364 92.7927 198.847 96.1612 193.304 102.154C187.761 108.146 184.647 116.272 184.645 124.745Z" fill="#3A3768"/>
<path d="M186.313 177.602V161.21C186.313 160.725 186.139 160.259 185.828 159.911C185.517 159.562 185.093 159.358 184.645 159.341V179.462C185.091 179.443 185.513 179.239 185.823 178.893C186.134 178.547 186.309 178.084 186.313 177.602Z" fill="#3A3768"/>
<path d="M186.662 229.385V198.084C186.662 197.837 186.617 197.593 186.53 197.366C186.442 197.138 186.314 196.931 186.153 196.757C185.992 196.582 185.8 196.444 185.59 196.35C185.379 196.255 185.153 196.207 184.925 196.207H184.645V231.262H184.91C185.139 231.264 185.367 231.217 185.579 231.124C185.792 231.03 185.985 230.892 186.148 230.718C186.311 230.543 186.44 230.336 186.528 230.107C186.616 229.878 186.662 229.633 186.662 229.385Z" fill="#3A3768"/>
<path d="M203.868 238.13C203.868 225.352 214.181 214.992 226.906 214.992C239.631 214.992 249.936 225.352 249.936 238.13C249.906 241.544 249.156 244.905 247.744 247.959C246.331 251.012 244.293 253.677 241.784 255.752H300.251V183.052C300.955 182.333 301.829 181.838 302.776 181.621C303.723 181.404 304.707 181.474 305.62 181.823C307.161 182.352 308.455 183.499 309.237 185.027C312.142 190.379 316.715 193.83 321.856 193.83C330.637 193.83 337.781 183.773 337.781 171.356C337.781 158.939 330.668 148.891 321.856 148.891C317.716 148.891 313.947 151.12 311.118 154.784C310.045 156.185 309.136 157.724 308.411 159.365L308.267 160.341C308.267 160.341 304.877 163.472 300.251 160.595V125.597H256.769C252.791 125.586 248.98 123.871 246.171 120.827C243.362 117.784 241.784 113.66 241.784 109.361V105.935H217.071C214.673 105.936 212.3 106.448 210.086 107.441C207.871 108.434 205.86 109.889 204.166 111.722C202.472 113.556 201.13 115.732 200.214 118.127C199.299 120.522 198.83 123.088 198.833 125.679V255.752H211.982C209.481 253.673 207.45 251.006 206.044 247.953C204.638 244.9 203.894 241.54 203.868 238.13Z" fill="#FF6366"/>
<path d="M280.285 107.861C279.507 107.863 278.762 108.198 278.212 108.792C277.662 109.387 277.352 110.192 277.35 111.033V111.746C277.352 112.587 277.662 113.394 278.211 113.989C278.761 114.585 279.506 114.922 280.285 114.926H300.274V107.886L280.285 107.861Z" fill="#E6E8EC"/>
<path d="M415.57 206.886V255.539H420.689V204.928H417.921C416.624 204.928 415.57 205.805 415.57 206.886Z" fill="#3A3768"/>
<path d="M312.438 92.4358H306.371V107.189H312.438V92.4358Z" fill="#3A3768"/>
<path d="M312.438 114.565H306.371V125.22H312.438V114.565Z" fill="#3A3768"/>
<path d="M312.438 107.189H306.371V114.565H312.438V107.189Z" fill="#E6E8EC"/>
<path d="M421.735 206.985H420.309V255.481H423.472V208.87C423.472 208.371 423.289 207.893 422.964 207.54C422.638 207.187 422.196 206.987 421.735 206.985Z" fill="#3A3768"/>
<path d="M312.43 107.189C314.045 107.582 315.463 110.762 315.463 110.762V111.451C315.463 111.451 314.038 114.623 312.43 114.565V125.22H346.699C350.684 125.218 354.505 123.506 357.322 120.459C360.139 117.413 361.721 113.283 361.721 108.976V105.55H387.504C392.335 105.56 396.964 107.642 400.376 111.337C403.788 115.033 405.704 120.04 405.704 125.261V220.754C408.08 222.806 409.998 225.409 411.316 228.371C412.634 231.333 413.318 234.577 413.318 237.864C413.318 241.15 412.634 244.395 411.316 247.357C409.998 250.318 408.08 252.921 405.704 254.973V255.522H416.321V207.419C416.321 207.387 416.327 207.356 416.338 207.326C416.35 207.297 416.367 207.27 416.388 207.248C416.409 207.226 416.434 207.209 416.462 207.197C416.489 207.186 416.519 207.18 416.548 207.181H420.112V123.171C420.113 119.135 419.378 115.138 417.95 111.408C416.521 107.679 414.426 104.29 411.785 101.436C409.145 98.5813 406.009 96.3174 402.559 94.7732C399.108 93.229 395.41 92.4347 391.675 92.4358H311.679V107.189H312.43ZM323.911 107.115C324.642 107.115 325.356 107.349 325.963 107.788C326.57 108.226 327.044 108.85 327.323 109.579C327.603 110.308 327.676 111.111 327.533 111.885C327.391 112.66 327.039 113.371 326.522 113.929C326.006 114.487 325.348 114.867 324.632 115.021C323.915 115.175 323.173 115.096 322.498 114.794C321.823 114.492 321.246 113.981 320.84 113.324C320.435 112.668 320.218 111.896 320.218 111.107C320.218 110.048 320.607 109.033 321.3 108.284C321.992 107.536 322.932 107.115 323.911 107.115Z" fill="#3A3768"/>
<path d="M323.016 145.661C334.93 145.661 344.591 156.816 344.591 170.57C344.591 184.323 334.93 195.478 323.016 195.478C319.778 195.458 316.588 194.631 313.694 193.06C310.8 191.489 308.281 189.217 306.333 186.421V255.539H375.341C372.84 253.454 370.811 250.782 369.407 247.725C368.003 244.668 367.26 241.306 367.234 237.892C367.234 225.098 377.525 214.73 390.227 214.73C395.886 214.689 401.375 216.824 405.712 220.754V125.261C405.712 120.041 403.795 115.033 400.383 111.338C396.971 107.642 392.342 105.561 387.512 105.55H361.729V108.976C361.729 113.283 360.146 117.413 357.329 120.46C354.512 123.506 350.691 125.218 346.706 125.22H306.371V154.726C308.315 151.935 310.828 149.666 313.714 148.094C316.601 146.521 319.784 145.689 323.016 145.661Z" fill="#FF6366"/>
<path d="M312.43 114.565C313.209 114.566 313.958 114.244 314.523 113.664C315.088 113.084 315.424 112.292 315.463 111.451V110.762C315.375 109.895 315.034 109.081 314.488 108.439C313.943 107.796 313.222 107.358 312.43 107.189H311.672V114.565H312.43Z" fill="#E6E8EC"/>
<path d="M324.503 115.029C326.516 114.676 327.883 112.625 327.557 110.449C327.23 108.273 325.333 106.796 323.32 107.149C321.306 107.502 319.939 109.552 320.266 111.728C320.593 113.904 322.49 115.382 324.503 115.029Z" fill="#E6E8EC"/>
<path d="M400.563 422.797V414.601C402.135 412.261 402.982 409.444 402.982 406.552C402.982 403.661 402.135 400.843 400.563 398.504V422.797Z" fill="#3A3768"/>
<path d="M414.751 425.961H400.563V429.485H414.751V425.961Z" fill="#3A3768"/>
<path d="M394.837 420.207C393.423 421.053 392.362 422.452 391.872 424.116C391.584 425.013 391.506 425.972 391.645 426.909C391.784 427.846 392.135 428.731 392.668 429.485H400.563V425.961H397.529C398.629 425.01 399.644 423.951 400.563 422.797V414.601C399.053 416.896 397.1 418.809 394.837 420.207Z" fill="#FF6366"/>
<path d="M397.514 425.961H400.548V422.797C399.629 423.951 398.614 425.01 397.514 425.961Z" fill="#FF6366"/>
<path d="M402.982 406.569C402.963 403.68 402.118 400.869 400.563 398.52V414.609C402.115 412.262 402.96 409.454 402.982 406.569Z" fill="#3A3768"/>
<path d="M414.751 429.485V563.828C414.751 572.305 411.635 580.436 406.089 586.43C400.542 592.425 393.02 595.793 385.176 595.793H305.552V582.679H382.317C387.156 582.679 391.797 580.601 395.219 576.903C398.64 573.205 400.563 568.189 400.563 562.959V429.485H414.751Z" fill="#3A3768"/>
<path d="M391.872 424.116C392.362 422.452 393.423 421.053 394.837 420.207C397.099 418.812 399.052 416.901 400.563 414.609V398.52C397.067 393.086 390.158 389.381 382.196 389.381C370.707 389.381 361.403 397.077 361.403 406.593C361.403 411.068 363.473 415.142 366.855 418.199C368.154 419.355 369.578 420.337 371.094 421.125L371.185 421.281C372.179 422.321 372.837 423.679 373.065 425.154C373.293 426.628 373.078 428.143 372.452 429.477H305.552V496.685C307.473 493.907 309.963 491.647 312.827 490.083C315.692 488.519 318.852 487.693 322.061 487.669C333.883 487.669 343.461 498.816 343.461 512.561C343.461 526.306 333.883 537.461 322.061 537.461C318.852 537.437 315.692 536.611 312.827 535.047C309.963 533.483 307.473 531.223 305.552 528.445V582.695H382.317C387.148 582.695 391.782 580.624 395.203 576.937C398.623 573.249 400.551 568.246 400.563 563.024V429.485H392.691C392.154 428.733 391.798 427.849 391.655 426.912C391.513 425.975 391.587 425.015 391.872 424.116Z" fill="#FF6366"/>
<path d="M536.151 220.59C540.383 218.533 543.515 215.066 544.584 210.624C544.713 210.085 544.81 209.537 544.872 208.985C545.061 208.473 545.223 207.951 545.357 207.419C546.427 202.961 545.251 198.346 542.461 194.404L536.917 217.353L536.151 220.59Z" fill="url(#paint0_linear)"/>
<path d="M664.111 211.976C663.247 206.493 647.231 194.617 647.231 194.617C647.231 194.617 640.156 190.519 636.41 185.781C634.013 182.765 633.262 182.798 633.035 183.208C632.88 183.101 632.703 183.036 632.519 183.019C632.368 182.905 632.224 182.798 632.087 182.675C632.109 182.444 632.063 182.211 631.956 182.009C631.848 181.807 631.684 181.648 631.488 181.552C631.306 181.438 631.124 181.29 630.942 181.151C629.729 178.946 629.296 175.823 629.152 173.102C628.97 169.668 625.361 170.528 624.125 170.914C623.275 169.193 622.449 167.406 621.668 165.619C622.013 165.039 622.3 164.421 622.525 163.775C624.754 158.538 624.269 152.53 625.239 146.989C625.937 142.981 627.393 138.793 627.105 134.892C627.105 134.802 627.105 134.703 627.105 134.605C627.105 134.605 627.105 134.646 627.105 134.662C627.026 133.685 626.819 132.725 626.491 131.81C625.846 130.056 624.724 128.532 624.216 126.72C623.404 124.073 623.92 121.155 623.245 118.475C622.403 115.082 619.749 112.459 616.746 110.959C613.743 109.459 610.399 108.943 607.108 108.5C598.88 107.386 590.136 106.722 582.629 110.459C581.941 110.9 581.154 111.129 580.354 111.123C579.613 110.902 578.911 110.55 578.276 110.082C576.259 109 573.726 109.689 571.922 111.131C570.117 112.574 568.888 114.656 567.698 116.672C566.507 118.688 565.203 120.77 563.337 122.089C561.146 123.671 558.249 124.204 556.512 126.335C555.739 127.345 555.249 128.574 555.102 129.876C555.102 129.876 555.102 129.835 555.102 129.818C555.094 129.974 555.094 130.13 555.102 130.286C555.102 130.408 555.102 130.54 555.102 130.663C555.102 130.786 555.102 130.867 555.102 130.966C555.102 131.318 555.102 131.662 555.102 132.007C555.345 134.009 555.837 135.966 556.565 137.826C556.916 139.214 557.601 140.475 558.552 141.481C561.191 143.801 565.377 141.613 568.562 142.908C568.843 143.014 569.108 143.153 569.374 143.285C569.374 143.416 569.29 143.547 569.252 143.686C568.57 146.191 568.226 148.788 568.228 151.399C568.228 166.791 580.051 179.266 594.633 179.266C595.179 179.266 595.718 179.266 596.256 179.2C596.332 179.503 596.415 179.815 596.484 180.11C597.295 183.511 597.552 187.039 597.242 190.535L597.083 189.011C596.729 188.827 596.361 188.677 595.983 188.56C594.927 188.18 593.82 187.997 592.707 188.019C589.12 187.97 583.721 189.527 577.958 197.084C577.958 197.084 570.602 201.502 568.441 202.567C568.264 202.683 568.123 202.855 568.039 203.059C568.039 203.059 558.203 219.115 557.187 225.221C556.171 231.327 554.912 238.335 554.912 238.335C554.912 238.335 552.455 246.252 550.87 249.76C549.286 253.268 547.837 256.612 547.701 258.137C547.564 259.661 548.277 263.005 545.244 265.136C542.21 267.267 541.452 273.054 541.452 273.054C541.452 273.054 539.935 274.595 537.789 276.545H537.713L545.638 243.703L547.056 244.089C547.395 244.18 547.752 244.163 548.082 244.041C548.413 243.919 548.705 243.696 548.922 243.4C549.068 243.199 549.174 242.968 549.232 242.72L550.832 236.065L551.477 233.417L551.606 232.876L552.539 229.016L549.384 228.196L545.691 227.205L535.256 224.361L536.166 220.59L536.925 217.394L541.695 197.608L542.453 194.42C539.42 190.175 534.589 186.724 528.651 185.126C517.201 182.052 506.114 187.052 503.885 196.289C503.752 196.828 503.654 197.375 503.589 197.928C503.397 198.435 503.237 198.955 503.111 199.485C502.725 201.089 502.622 202.758 502.808 204.403C502.838 204.671 502.876 204.944 502.921 205.223C503.376 207.775 504.37 210.178 505.826 212.247C506.85 213.725 508.04 215.06 509.367 216.222L509.42 216.402C509.983 217.396 510.323 218.519 510.414 219.681C510.414 219.845 510.414 220.017 510.414 220.189C510.159 220.683 509.854 221.145 509.504 221.566L439.541 202.772L438.782 205.96L423.024 271.406C425.079 269.7 427.386 268.383 429.849 267.513C430.817 267.167 431.805 266.893 432.807 266.694L433.163 266.628C435.984 266.133 438.868 266.261 441.641 267.005C450.483 269.382 456.595 277.521 457.733 287.094C457.88 288.303 457.944 289.522 457.922 290.741C457.901 292.296 457.748 293.846 457.467 295.372C453.676 307.814 442.028 315.329 430.714 312.289C427.543 311.424 424.6 309.78 422.114 307.484C419.628 305.188 417.666 302.302 416.381 299.052L415.623 302.248L399.365 369.416L461.327 386.07L461.995 382.849H462.093C460.258 380.392 458.927 377.542 458.19 374.487C457.453 371.431 457.325 368.241 457.816 365.129C457.816 365.022 457.877 364.924 457.915 364.818C457.991 364.58 458.074 364.35 458.158 364.121C458.582 362.999 459.089 361.917 459.674 360.883C459.978 360.351 460.296 359.834 460.637 359.334C460.85 359.023 461.069 358.72 461.297 358.425C462.388 356.997 463.633 355.714 465.005 354.605L465.445 354.261C465.946 353.876 466.461 353.507 466.962 353.163C467.273 352.966 467.591 352.769 467.91 352.589C471.58 350.494 475.681 349.436 479.83 349.515C481.825 349.544 483.809 349.819 485.745 350.335C491.724 351.887 496.945 355.81 500.374 361.326C500.827 362.065 501.242 362.832 501.617 363.621C502.734 365.962 503.46 368.498 503.763 371.112C504 373.199 503.949 375.312 503.612 377.382C502.137 381.966 499.321 385.905 495.588 388.603L494.83 391.684H494.914L494.8 391.775L494.042 394.848L508.192 398.651L528.234 315.829C533.641 315.149 536.409 312.551 536.409 312.174C536.409 311.797 542.908 307.904 546.51 306.838C548.3 306.314 550.37 305.937 552.015 305.56C550.074 315.977 548.224 326.05 548.391 326.64C548.444 326.869 548.793 326.509 549.323 325.722C549.271 326.025 549.248 326.332 549.255 326.64C549.255 326.796 549.46 326.681 549.725 326.361L549.687 326.558C549.687 326.558 538.434 350.089 537.554 352.786C536.675 355.482 537.767 362.383 541.232 364.67C541.904 365.129 542.503 365.702 543.007 366.367L542.597 367.244C541.308 370.071 540.163 373.219 540.368 375.177C540.639 377.657 540.102 380.16 538.851 382.259C538.851 382.259 529.106 414.806 529.326 424.174C529.546 433.542 525.861 454.098 525.861 454.098C525.861 454.098 521.857 467.343 524.238 471.113C526.619 474.883 529.326 491.333 529.326 491.333C529.326 491.333 531.169 495.103 531.055 498.3C530.942 501.496 532.792 507.315 532.792 507.315L538.859 530.953C538.859 530.953 538.206 537.239 540.481 541.69C542.756 546.14 542.536 544.772 541.452 552.541C540.368 560.311 542.756 567.499 546.647 569.753C548.163 570.639 548.239 571.991 547.769 573.31C546.775 572.892 545.949 575.114 545.456 576.909L544.955 577.425L545.289 577.515C545.077 578.335 544.955 579.023 544.955 579.023C544.955 579.023 534.786 588.162 534.134 591.473C533.482 594.784 526.339 596.497 526.339 596.497C526.339 596.497 515.517 599.694 512.689 601.292C511.879 601.69 511.179 602.307 510.655 603.084C510.132 603.861 509.803 604.771 509.701 605.726C509.574 607.231 509.708 608.749 510.095 610.201C511.172 614.881 526.323 615.34 533.603 614.086C540.883 612.832 555.891 608.259 555.891 608.259C555.891 608.259 571.694 606.62 576.365 604.603C581.037 602.587 577.336 597.292 577.336 597.292C577.336 597.292 577.336 597.12 577.336 596.801C577.45 594.891 577.776 587.965 576.654 586.146C575.812 584.736 575.834 581.228 575.956 578.999C579.118 572.852 572.331 554.41 572.331 554.41C572.331 554.41 573.628 536.379 572.763 533.74C571.899 531.1 568.213 508.725 568.213 508.725C568.213 508.725 565.938 498.562 566.81 496.849C567.682 495.136 566.264 490.218 566.264 490.218C566.264 490.218 562.556 484.751 562.89 483.03C563.224 481.309 561.805 478.235 561.805 478.235C561.805 478.235 572.847 460.417 571.868 457.106C570.89 453.795 572.308 448.426 572.308 448.426C572.308 448.426 573.696 445.902 575.342 442.877C577.389 439.173 579.892 434.739 580.711 433.353C581.772 431.591 584.328 424.092 585.753 419.773C586.36 417.937 586.77 416.674 586.77 416.674C586.77 416.674 588.499 450.278 590.015 453.68C591.532 457.081 593.807 484.178 593.807 484.178C594.648 486.583 595.017 489.15 594.891 491.718C594.679 495.939 598.357 514.331 598.357 514.331C598.357 514.331 599.98 527.347 598.895 530.773C597.811 534.199 598.683 559.459 598.683 559.459C598.683 559.459 592.73 564.377 591.213 568.139C589.697 571.901 591.426 582.187 591.426 582.187L592.123 582.539C591.565 583.968 591.151 585.457 590.887 586.982C590.675 589.154 587.422 598.981 587.748 600.349C588.074 601.718 586.345 605.947 586.125 608.111C585.905 610.275 583.205 613.48 582.986 614.627C582.643 615.654 582.246 616.658 581.795 617.635C581.206 619.135 580.737 620.688 580.392 622.274C579.308 627.077 592.184 627.872 592.184 627.872C611.233 631.642 614.699 616.225 614.699 616.225C614.699 616.225 617.08 602.521 617.944 601.472C618.05 601.278 618.118 601.061 618.142 600.837C618.167 600.613 618.149 600.385 618.088 600.169C617.594 597.838 616.659 595.642 615.343 593.719C614.737 592.957 614.699 590.998 614.797 589.244C615.348 589.186 615.894 589.076 616.428 588.916C624.109 586.523 620.978 572.696 620.978 572.696C620.978 572.696 626.172 563.565 626.172 560.025C626.172 556.484 628.015 545.632 628.015 545.632C634.62 532.838 632.019 501.775 633.103 499.258C634.188 496.742 630.828 487.382 628.121 483.153C625.414 478.924 626.498 467.507 628.121 464.195C629.744 460.884 626.498 449.442 626.498 449.442C626.498 449.442 629.638 427.313 629.532 423.854C629.425 420.395 632.239 410.265 632.239 410.265C632.239 410.265 635.052 405.011 634.4 403.413C633.748 401.815 636.561 397.676 635.81 395.873C635.06 394.069 636.455 388.447 637.866 385.136C638.586 383.439 639.481 378.767 640.14 374.612C640.216 374.153 640.292 373.694 640.36 373.243C643.515 375.399 646.427 377.005 647.458 376.571C649.392 375.751 646.313 365.096 644.205 358.457C644.569 358.162 644.721 357.941 644.569 357.843C643.272 356.925 644.713 352.81 644.713 352.81C652.365 347.942 649.764 344.286 647.314 342.155C644.865 340.024 646.45 333.959 645.722 331.5C644.994 329.041 646.594 317.952 647.891 309.879C648.16 308.125 648.147 306.334 647.853 304.584C649.24 302.298 650.674 299.904 651.932 297.691C656.255 290.077 665.491 253.834 665.491 253.834L665.431 253.645C666.333 251.719 667.008 250.154 667.372 249.113C670.17 241.245 664.976 217.476 664.111 211.976ZM596.863 191.109L597.06 191.011C597.06 191.068 597.06 191.125 597.06 191.183L596.863 191.109ZM554.874 579.892C554.403 579.895 553.936 579.795 553.502 579.597L554.874 579.892Z" fill="url(#paint1_linear)"/>
<path d="M474.704 315.739C480.945 318.296 495.452 318.575 501.898 318.575C503.854 318.575 505.067 318.575 505.067 318.575L509.2 309.477L505.067 301.896C505.067 301.896 501.276 300.765 496.241 299.781C488.809 298.339 478.64 297.208 473.794 300.453C465.665 305.888 466.575 312.403 474.704 315.739Z" fill="#FEC2BE"/>
<path opacity="0.1" d="M501.89 318.575C503.847 318.575 505.06 318.575 505.06 318.575L509.193 309.477L505.068 301.896C505.068 301.896 501.276 300.765 496.241 299.781C500.328 303.027 510.156 310.092 501.89 318.575Z" fill="black"/>
<path d="M570.344 206.919L568.524 204.641C568.524 204.641 559.129 220.705 558.143 226.77C557.157 232.835 555.868 239.802 555.868 239.802C555.868 239.802 553.487 247.687 551.94 251.17C550.393 254.653 548.997 257.989 548.861 259.506C548.724 261.022 549.422 264.358 546.472 266.48C543.522 268.603 542.832 274.365 542.832 274.365C542.832 274.365 532.17 285.577 526.559 285.84C520.947 286.102 504.825 289.176 505.386 292.208C505.947 295.241 498.66 297.052 495.71 297.814C492.76 298.576 514.668 307.65 501.883 319.337C501.883 319.337 510.012 321.157 510.854 323.271C511.695 325.386 520.249 322.067 520.249 322.067C520.249 322.067 522.077 317.362 528.386 317.059C534.695 316.755 537.918 313.723 537.918 313.272C537.918 312.821 544.228 309.027 547.776 307.969C551.325 306.912 555.906 306.453 556.05 305.387C556.194 304.322 577.086 206.878 577.086 206.878L570.344 206.919Z" fill="#4C4981"/>
<path opacity="0.05" d="M570.344 206.919L568.524 204.641C568.524 204.641 559.129 220.705 558.143 226.77C557.157 232.835 555.868 239.802 555.868 239.802C555.868 239.802 553.487 247.687 551.94 251.17C550.393 254.653 548.997 257.989 548.861 259.506C548.724 261.022 549.422 264.358 546.472 266.48C543.522 268.603 542.832 274.365 542.832 274.365C542.832 274.365 532.17 285.577 526.559 285.84C520.947 286.102 504.825 289.176 505.386 292.208C505.947 295.241 498.66 297.052 495.71 297.814C492.76 298.576 514.668 307.65 501.883 319.337C501.883 319.337 510.012 321.157 510.854 323.271C511.695 325.386 520.249 322.067 520.249 322.067C520.249 322.067 522.077 317.362 528.386 317.059C534.695 316.755 537.918 313.723 537.918 313.272C537.918 312.821 544.228 309.027 547.776 307.969C551.325 306.912 555.906 306.453 556.05 305.387C556.194 304.322 577.086 206.878 577.086 206.878L570.344 206.919Z" fill="black"/>
<path d="M592.184 627.503C610.695 631.257 614.062 615.906 614.062 615.906C614.062 615.906 616.375 602.267 617.216 601.243C617.321 601.049 617.388 600.834 617.413 600.612C617.437 600.389 617.42 600.163 617.36 599.948C616.875 597.636 615.967 595.451 614.691 593.522C613.538 592.047 614.479 585.908 614.479 585.908L593.026 579.999C593.026 579.999 591.13 584.654 590.925 586.818C590.72 588.981 587.558 598.751 587.892 600.12C588.226 601.489 586.527 605.685 586.315 607.849C586.102 610.013 583.478 613.193 583.281 614.324C582.951 615.348 582.564 616.35 582.121 617.324C581.552 618.819 581.095 620.363 580.756 621.938C579.672 626.708 592.184 627.503 592.184 627.503Z" fill="#CA8496"/>
<path opacity="0.1" d="M592.184 627.503C610.695 631.257 614.062 615.906 614.062 615.906C614.062 615.906 616.375 602.267 617.216 601.243C617.321 601.049 617.388 600.834 617.413 600.611C617.437 600.389 617.42 600.163 617.36 599.948L612.901 613.75C612.901 613.75 609.224 622.045 595.551 620.799C587.77 620.086 583.941 618.528 582.083 617.315C581.514 618.811 581.057 620.354 580.718 621.93C579.672 626.708 592.184 627.503 592.184 627.503Z" fill="black"/>
<path opacity="0.1" d="M606.592 605.906C606.592 605.906 601.966 606.021 601.648 601.931L606.592 605.906Z" fill="black"/>
<path d="M462.692 382.816L465.627 383.628L464.982 386.849L462.26 386.103L462.692 382.816Z" fill="#FF6366"/>
<path opacity="0.1" d="M462.692 382.816L465.627 383.628L464.982 386.849L462.26 386.103L462.692 382.816Z" fill="black"/>
<path d="M549.79 232.844L548.885 236.688L551.949 237.531L552.855 233.687L549.79 232.844Z" fill="#3A3768"/>
<path d="M536.032 229.055L535.127 232.899L545.291 235.695L546.196 231.851L536.032 229.055Z" fill="#3A3768"/>
<path d="M546.19 231.86L545.285 235.704L548.879 236.692L549.784 232.848L546.19 231.86Z" fill="#3A3768"/>
<path d="M536.189 228.557C535.947 228.68 535.711 228.811 535.476 228.918L536.068 229.082L535.158 232.926L530.661 231.688C530.32 230.816 530.184 229.867 530.264 228.925C530.345 227.982 530.64 227.076 531.124 226.287C531.98 224.793 533.339 223.718 534.915 223.287C535.878 222.988 536.819 222.61 537.729 222.156L536.189 228.557Z" fill="#FF6366"/>
<path d="M546.919 245.154L548.292 245.539C548.514 245.601 548.744 245.614 548.971 245.579C549.197 245.544 549.415 245.461 549.612 245.334C549.808 245.208 549.98 245.041 550.116 244.842C550.253 244.644 550.352 244.419 550.408 244.179L551.94 237.556L548.906 236.737L546.919 245.154Z" fill="#3A3768"/>
<path d="M545.873 212.239C544.827 216.664 541.786 220.115 537.676 222.156L543.06 199.289C545.79 203.215 546.935 207.813 545.873 212.239Z" fill="#3A3768"/>
<path d="M545.008 244.63C544.563 244.506 544.182 244.197 543.947 243.77C543.713 243.343 543.645 242.833 543.757 242.351L545.319 235.72L535.158 232.926L504.165 364.506C506.419 369.247 506.991 374.715 505.775 379.881C504.558 385.047 501.637 389.553 497.56 392.553L496.84 395.619L510.588 399.43L546.919 245.187L545.008 244.63Z" fill="#3A3768"/>
<path d="M543.757 242.351C543.645 242.833 543.713 243.343 543.947 243.77C544.182 244.197 544.563 244.506 545.009 244.63L546.919 245.154L548.906 236.712L545.319 235.72L543.757 242.351Z" fill="#3A3768"/>
<path d="M531.116 226.287C531.977 224.798 533.335 223.724 534.908 223.287C535.867 222.985 536.805 222.607 537.713 222.156L543.105 199.289C539.73 194.655 535.001 191.396 529.69 190.043C518.566 186.978 507.782 191.953 505.621 201.149C504.597 205.485 505.674 209.985 508.26 213.853C509.251 215.32 510.404 216.65 511.695 217.812L511.748 217.992C512.479 219.27 512.81 220.768 512.693 222.264C512.575 223.761 512.016 225.177 511.096 226.303L443.105 207.591L427.764 272.734C430.252 270.556 433.172 269.028 436.295 268.269C439.419 267.51 442.663 267.54 445.774 268.357C457.232 271.513 463.974 284.873 460.834 298.191C457.695 311.51 445.895 319.763 434.437 316.649C431.332 315.765 428.459 314.115 426.042 311.83C423.625 309.545 421.73 306.686 420.507 303.478L404.756 370.325L464.982 386.89C463.029 384.21 461.667 381.083 460.999 377.748C460.332 374.414 460.376 370.958 461.13 367.645C464.05 355.269 476.403 347.975 488.733 351.368C492.025 352.239 495.105 353.862 497.767 356.128C500.429 358.395 502.611 361.252 504.165 364.506L535.158 232.926L530.707 231.688C530.358 230.821 530.213 229.874 530.284 228.932C530.355 227.989 530.641 227.081 531.116 226.287Z" fill="#FF6366"/>
<path d="M536.06 229.082L536.189 228.557C535.954 228.68 535.719 228.811 535.476 228.926L536.06 229.082Z" fill="#FF6366"/>
<g opacity="0.1">
<path opacity="0.1" d="M549.809 232.868L546.222 231.876L536.068 229.082L536.197 228.557L537.713 222.156C536.804 222.61 535.863 222.988 534.9 223.287C533.324 223.718 531.965 224.793 531.108 226.287C530.886 226.699 530.698 227.133 530.547 227.582C530.695 227.133 530.88 226.699 531.101 226.287C531.962 224.798 533.319 223.724 534.892 223.287C535.852 222.985 536.79 222.607 537.698 222.156L543.09 199.289C539.715 194.655 534.986 191.396 529.675 190.043C518.551 186.978 507.767 191.953 505.606 201.149C504.582 205.485 505.659 209.985 508.245 213.853C509.235 215.32 510.389 216.65 511.68 217.812L511.733 217.992C512.464 219.27 512.795 220.768 512.678 222.264C512.56 223.761 512 225.177 511.081 226.303L443.09 207.591L427.749 272.734C430.239 270.554 433.161 269.024 436.287 268.265C439.414 267.506 442.661 267.537 445.774 268.357C457.232 271.513 463.974 284.873 460.834 298.191C457.695 311.51 445.895 319.763 434.437 316.649C431.332 315.765 428.459 314.115 426.042 311.83C423.625 309.545 421.73 306.686 420.507 303.478L404.756 370.325L464.982 386.89C463.029 384.21 461.667 381.083 460.999 377.748C460.332 374.414 460.376 370.958 461.13 367.645C464.05 355.269 476.403 347.974 488.733 351.368C492.025 352.239 495.105 353.862 497.767 356.128C500.429 358.395 502.611 361.252 504.165 364.506C506.419 369.247 506.991 374.715 505.775 379.881C504.558 385.047 501.637 389.553 497.56 392.553L496.84 395.619L510.588 399.43L546.92 245.187L548.292 245.572C548.514 245.634 548.744 245.647 548.971 245.612C549.197 245.577 549.415 245.494 549.612 245.367C549.808 245.241 549.98 245.074 550.116 244.875C550.253 244.677 550.352 244.451 550.408 244.212L551.94 237.556L552.842 233.712L549.809 232.868ZM535.825 228.77C535.711 228.828 535.598 228.893 535.484 228.942L535.825 228.77ZM530.669 231.713L535.165 232.95L530.669 231.713Z" fill="black"/>
<path opacity="0.1" d="M545.873 212.239C546.912 207.813 545.767 203.223 543.06 199.289L537.676 222.156C541.808 220.115 544.849 216.656 545.873 212.239Z" fill="black"/>
</g>
<path d="M550.535 229.674L549.629 233.519L552.694 234.362L553.599 230.517L550.535 229.674Z" fill="#3A3768"/>
<path d="M536.777 225.885L535.871 229.73L546.035 232.526L546.94 228.681L536.777 225.885Z" fill="#3A3768"/>
<path d="M546.937 228.674L546.031 232.519L549.625 233.507L550.53 229.663L546.937 228.674Z" fill="#3A3768"/>
<path d="M536.94 225.377L536.227 225.746L536.811 225.902L535.909 229.77L531.412 228.532C531.066 227.662 530.926 226.713 531.005 225.769C531.085 224.826 531.381 223.919 531.867 223.131C532.726 221.641 534.084 220.566 535.658 220.131C536.619 219.832 537.557 219.454 538.464 219L536.94 225.377Z" fill="#FF6366"/>
<path d="M547.663 241.982L549.043 242.359C549.266 242.424 549.499 242.441 549.728 242.407C549.957 242.374 550.177 242.292 550.377 242.165C550.576 242.038 550.75 241.87 550.888 241.669C551.026 241.469 551.126 241.241 551.181 240.999L552.743 234.376L549.71 233.557L547.663 241.982Z" fill="#3A3768"/>
<path d="M546.631 209.067C545.592 213.484 542.552 216.935 538.434 218.976L543.826 196.109C546.54 200.034 547.685 204.632 546.631 209.067Z" fill="#3A3768"/>
<path d="M545.759 241.458C545.538 241.397 545.33 241.289 545.148 241.141C544.965 240.993 544.811 240.807 544.695 240.595C544.579 240.382 544.502 240.147 544.47 239.903C544.438 239.659 544.451 239.41 544.508 239.171L546.025 232.549L535.909 229.77L504.923 361.334C507.182 366.073 507.756 371.541 506.54 376.707C505.323 381.873 502.398 386.378 498.318 389.373L497.598 392.438L511.354 396.225L547.678 241.982L545.759 241.458Z" fill="#3A3768"/>
<path d="M544.508 239.171C544.451 239.41 544.438 239.659 544.47 239.903C544.502 240.147 544.579 240.382 544.695 240.595C544.811 240.807 544.965 240.993 545.148 241.141C545.33 241.289 545.538 241.397 545.759 241.458L547.663 241.982L549.665 233.532L546.07 232.549L544.508 239.171Z" fill="#3A3768"/>
<path d="M531.867 223.107C532.726 221.616 534.084 220.542 535.658 220.107C536.619 219.808 537.557 219.43 538.464 218.976L543.848 196.109C540.476 191.476 535.749 188.217 530.441 186.863C519.309 183.806 508.533 188.773 506.364 197.977C505.348 202.305 506.417 206.805 509.011 210.673C510.001 212.143 511.155 213.475 512.446 214.64L512.499 214.812C513.227 216.091 513.557 217.588 513.44 219.084C513.322 220.58 512.764 221.995 511.847 223.123L443.848 204.419L428.484 269.554C430.977 267.37 433.903 265.839 437.034 265.082C440.165 264.324 443.416 264.359 446.532 265.185C457.983 268.333 464.732 281.692 461.593 295.019C458.453 308.346 446.646 316.583 435.157 313.436C432.057 312.546 429.188 310.893 426.775 308.607C424.363 306.321 422.472 303.463 421.25 300.257L405.507 367.104L465.726 383.677C463.773 380.996 462.413 377.869 461.746 374.535C461.08 371.2 461.126 367.745 461.881 364.432C464.793 352.048 477.154 344.762 489.484 348.155C492.782 349.026 495.867 350.654 498.531 352.928C501.195 355.202 503.375 358.069 504.923 361.334L535.909 229.77L531.412 228.532C531.066 227.658 530.926 226.705 531.005 225.757C531.085 224.81 531.381 223.899 531.867 223.107Z" fill="#FF6366"/>
<path d="M536.811 225.91L536.932 225.377C536.697 225.5 536.462 225.631 536.227 225.746L536.811 225.91Z" fill="#FF6366"/>
<path d="M526.157 471.556C528.432 475.301 531.101 491.677 531.101 491.677C531.101 491.677 532.89 495.423 532.784 498.611C532.678 501.799 534.468 507.627 534.468 507.627L540.36 531.158C540.36 531.158 539.723 537.411 541.937 541.813C544.152 546.214 543.932 544.878 542.885 552.607C541.839 560.336 544.144 567.499 547.928 569.819C551.712 572.138 546.245 577.433 546.245 577.433C546.245 577.433 570.435 584.482 575.486 580.162C580.536 575.843 572.854 554.468 572.854 554.468C572.854 554.468 574.121 536.51 573.279 533.895C572.437 531.281 568.858 509.004 568.858 509.004C568.858 509.004 566.651 498.881 567.493 497.177C568.335 495.472 566.97 490.62 566.97 490.62C566.97 490.62 563.39 485.161 563.709 483.456C564.027 481.752 562.655 478.686 562.655 478.686C562.655 478.686 573.362 460.901 572.414 457.565C571.466 454.229 572.831 448.926 572.831 448.926L575.819 443.402C577.814 439.714 580.225 435.296 581.037 433.919C582.068 432.165 584.555 424.707 585.943 420.404L586.929 417.322C586.929 417.322 588.612 450.746 590.083 454.155C591.555 457.565 593.761 484.481 593.761 484.481C594.579 486.878 594.938 489.429 594.815 491.98C594.603 496.185 598.182 514.487 598.182 514.487C598.182 514.487 599.76 527.445 598.706 530.879C597.651 534.313 598.493 559.418 598.493 559.418C598.493 559.418 592.707 564.336 591.236 568.057C589.765 571.778 591.448 581.99 591.448 581.99C591.448 581.99 608.276 591.088 615.715 588.703C623.154 586.318 620.128 572.556 620.128 572.556C620.128 572.556 625.179 563.467 625.179 559.943C625.179 556.418 627.014 545.657 627.014 545.657C633.429 532.928 630.904 502.012 631.958 499.513C633.012 497.013 629.744 487.686 627.12 483.481C624.496 479.276 625.543 467.908 627.12 464.63C628.697 461.351 625.497 449.951 625.497 449.951C625.497 449.951 628.53 427.895 628.439 424.485C628.348 421.076 631.071 410.962 631.071 410.962C631.071 410.962 633.801 405.733 633.171 404.134C632.542 402.536 635.272 398.454 634.536 396.635C633.801 394.815 635.173 389.258 636.538 385.98C637.236 384.291 638.108 379.636 638.813 375.513C639.458 371.588 639.936 368.137 639.936 368.137L622.578 353.015L579.247 340.721L562.951 335.041L547.064 362.088C545.941 364.061 544.91 366.093 543.977 368.178C542.726 370.989 541.611 374.12 541.808 376.071C542.073 378.533 541.554 381.019 540.337 383.119C540.337 383.119 530.866 415.511 531.078 424.838C531.29 434.165 527.711 454.614 527.711 454.614C527.711 454.614 523.821 467.794 526.157 471.556Z" fill="#CEDDF9"/>
<path d="M590.205 208.05C590.872 207.755 636.622 187.331 630.32 183.273C626.582 180.864 621.979 170.651 618.824 162.66C616.625 157.079 615.131 152.579 615.131 152.579C615.131 152.579 578.413 145.53 591.555 169.856C593.626 173.588 595.187 177.624 596.188 181.839C599.934 198.412 590.508 207.747 590.205 208.05Z" fill="#FEC2BE"/>
<path opacity="0.1" d="M591.555 169.856C593.626 173.588 595.187 177.624 596.188 181.839C600.846 181.489 605.328 179.77 609.149 176.868C612.97 173.966 615.985 169.991 617.868 165.373C618.233 164.488 618.552 163.583 618.824 162.66C616.625 157.079 615.131 152.579 615.131 152.579C615.131 152.579 578.413 145.53 591.555 169.856Z" fill="black"/>
<path d="M568.729 153.259C568.731 160.277 571.195 167.032 575.624 172.163C580.053 177.294 586.117 180.42 592.594 180.909C599.071 181.399 605.478 179.216 610.525 174.8C615.571 170.385 618.881 164.066 619.786 157.117C620.692 150.169 619.126 143.107 615.405 137.357C611.684 131.607 606.084 127.595 599.734 126.132C593.384 124.668 586.757 125.861 581.189 129.47C575.621 133.079 571.526 138.836 569.73 145.579C569.065 148.076 568.728 150.661 568.729 153.259Z" fill="#FEC2BE"/>
<path opacity="0.1" d="M543.977 368.17C546.662 370.809 547.693 375.833 547.693 375.833C547.693 375.833 560.319 385.152 559.477 379.243C558.636 373.333 565.999 349.458 565.999 349.458L565.157 381.972C565.157 381.972 605.538 379.923 608.488 376.743C611.438 373.563 628.682 367.465 628.682 367.465C628.682 367.465 633.99 372.046 638.813 375.522C639.458 371.596 639.936 368.145 639.936 368.145L622.578 353.023L579.247 340.729L562.951 335.049L547.064 362.096C545.941 364.064 544.911 366.09 543.977 368.17Z" fill="black"/>
<path d="M542.65 365.604C546.017 367.875 547.276 374.014 547.276 374.014C547.276 374.014 559.894 383.333 559.053 377.423C558.211 371.514 565.574 347.639 565.574 347.639L564.733 380.153C564.733 380.153 605.121 378.12 608.056 374.923C610.99 371.727 628.25 365.604 628.25 365.604C628.25 365.604 643.189 378.562 645.919 377.423C648.649 376.284 641.081 354.236 641.081 354.236L633.308 225.106C633.308 225.106 635.408 186.683 632.254 185.314C631.767 185.102 631.318 184.799 630.927 184.421C628.849 182.405 628.227 178.307 628.045 174.864C627.84 170.766 622.79 172.815 622.79 172.815L625.732 176.913L599.669 194.043L599.441 194.191C598.426 193.613 597.38 193.101 596.309 192.658C594.034 191.699 590.933 190.798 588.923 191.691C587.8 192.308 586.847 193.236 586.163 194.379C584.676 196.794 583.483 199.405 582.614 202.149L573.173 219.418C573.173 219.418 568.335 242.368 568.335 243.294C568.335 244.22 566.863 265.12 565.18 267.39C563.497 269.661 561.813 281.029 562.442 284.438C563.072 287.848 561.388 300.585 561.388 300.585C554.45 306.723 550.878 327.632 550.878 327.632C550.878 327.632 539.913 351.073 539.048 353.777C538.184 356.482 539.283 363.367 542.65 365.604Z" fill="white"/>
<path opacity="0.1" d="M599.669 194.945C602.224 199.043 609.61 204.78 609.61 204.78L630.927 185.314C628.849 183.298 628.227 179.2 628.045 175.749C627.84 171.651 622.79 173.709 622.79 173.709L623.404 174.528C623.697 174.937 623.907 175.407 624.02 175.91C624.133 176.412 624.147 176.934 624.06 177.442C623.973 177.951 623.788 178.433 623.517 178.859C623.246 179.285 622.895 179.644 622.487 179.913L599.669 194.945Z" fill="black"/>
<path d="M599.669 194.035C602.224 198.133 609.61 203.87 609.61 203.87L630.927 184.405C628.849 182.388 628.227 178.29 628.045 174.848C627.84 170.75 622.79 172.799 622.79 172.799L623.404 173.618C623.697 174.026 623.907 174.496 624.02 174.998C624.133 175.5 624.146 176.021 624.06 176.529C623.973 177.037 623.788 177.519 623.517 177.944C623.246 178.369 622.895 178.727 622.487 178.995L599.669 194.035Z" fill="white"/>
<path opacity="0.1" d="M589.81 197.1C592.563 200.657 596.468 204.698 596.286 202.674C596.104 200.649 598.615 196.182 600.215 194.182C597.715 193.326 595.022 193.407 592.571 194.412C591.446 195.027 590.493 195.955 589.81 197.1Z" fill="black"/>
<path d="M589.393 195.732C592.146 199.297 596.044 203.329 595.862 201.313C595.68 199.297 597.932 196.01 599.532 194.01C597.257 193.051 594.163 192.15 592.146 193.051C591.024 193.664 590.073 194.589 589.393 195.732Z" fill="white"/>
<path d="M596.286 214.648C597.216 214.648 597.97 213.834 597.97 212.829C597.97 211.824 597.216 211.009 596.286 211.009C595.357 211.009 594.603 211.824 594.603 212.829C594.603 213.834 595.357 214.648 596.286 214.648Z" fill="#FF718D"/>
<path d="M583.524 263.751C584.454 263.751 585.207 262.937 585.207 261.932C585.207 260.927 584.454 260.112 583.524 260.112C582.594 260.112 581.84 260.927 581.84 261.932C581.84 262.937 582.594 263.751 583.524 263.751Z" fill="#FF718D"/>
<path d="M569.085 313.469C570.015 313.469 570.769 312.654 570.769 311.649C570.769 310.644 570.015 309.83 569.085 309.83C568.156 309.83 567.402 310.644 567.402 311.649C567.402 312.654 568.156 313.469 569.085 313.469Z" fill="#FF718D"/>
<path d="M568.661 367.571C569.59 367.571 570.344 366.757 570.344 365.752C570.344 364.747 569.59 363.932 568.661 363.932C567.731 363.932 566.977 364.747 566.977 365.752C566.977 366.757 567.731 367.571 568.661 367.571Z" fill="#FF718D"/>
<path d="M588.855 237.835C589.785 237.835 590.538 237.02 590.538 236.015C590.538 235.011 589.785 234.196 588.855 234.196C587.925 234.196 587.171 235.011 587.171 236.015C587.171 237.02 587.925 237.835 588.855 237.835Z" fill="#FF718D"/>
<path d="M577.495 288.307C578.425 288.307 579.179 287.492 579.179 286.487C579.179 285.482 578.425 284.668 577.495 284.668C576.565 284.668 575.812 285.482 575.812 286.487C575.812 287.492 576.565 288.307 577.495 288.307Z" fill="#FF718D"/>
<path d="M566.416 337.869C567.346 337.869 568.1 337.054 568.1 336.049C568.1 335.044 567.346 334.229 566.416 334.229C565.486 334.229 564.733 335.044 564.733 336.049C564.733 337.054 565.486 337.869 566.416 337.869Z" fill="#FF718D"/>
<path d="M568.941 373.637C569.871 373.637 570.625 372.822 570.625 371.817C570.625 370.812 569.871 369.998 568.941 369.998C568.011 369.998 567.258 370.812 567.258 371.817C567.258 372.822 568.011 373.637 568.941 373.637Z" fill="#FF718D"/>
<path opacity="0.1" d="M630.927 185.511C630.927 185.511 630.646 182.782 634.286 187.486C637.926 192.191 644.804 196.272 644.804 196.272C644.804 196.272 660.373 208.099 661.214 213.55C662.056 219 667.099 242.654 664.437 250.531C661.775 258.407 641.422 296.159 641.422 296.159C641.422 296.159 646.73 302.986 645.494 311.018C644.258 319.05 642.688 330.115 643.386 332.541C644.084 334.967 642.544 341.024 644.903 343.147C647.261 345.27 649.809 348.884 642.377 353.753C642.377 353.753 640.975 357.851 642.233 358.761C643.492 359.67 623.586 369.063 615.692 364.063C607.798 359.064 593.701 319.05 593.397 310.108C593.094 301.166 597.742 271.587 600.268 264.636C602.793 257.686 610.369 230.532 613.591 224.475C616.814 218.418 630.927 185.511 630.927 185.511Z" fill="black"/>
<path d="M631.761 185.511C631.761 185.511 631.48 182.782 635.128 187.486C638.775 192.191 645.646 196.272 645.646 196.272C645.646 196.272 661.214 208.099 662.056 213.55C662.898 219 667.941 242.654 665.279 250.531C662.617 258.407 642.279 296.159 642.279 296.159C642.279 296.159 647.587 302.986 646.351 311.018C645.115 319.05 643.545 330.115 644.243 332.541C644.941 334.967 643.401 341.024 645.76 343.147C648.118 345.27 650.666 348.884 643.234 353.753C643.234 353.753 641.831 357.851 643.09 358.761C644.349 359.67 624.443 369.063 616.549 364.063C608.655 359.064 594.557 319.05 594.254 310.108C593.951 301.166 598.599 271.587 601.125 264.636C603.65 257.686 611.225 230.532 614.448 224.475C617.671 218.418 631.761 185.511 631.761 185.511Z" fill="#4C4981"/>
<path opacity="0.1" d="M637.373 211.312C637.373 211.312 625.315 225.713 625.732 235.261C625.732 235.261 625.596 219.795 637.373 211.312Z" fill="black"/>
<path opacity="0.1" d="M620.689 234.958C620.689 235.409 612.553 268.144 612.977 272.242C613.402 276.34 610.589 288.454 610.589 288.454L606.797 287.397C606.797 287.397 609.739 270.57 610.3 264.358C610.862 258.145 620.689 234.958 620.689 234.958Z" fill="black"/>
<path opacity="0.1" d="M617.459 328.32C617.74 328.771 636.675 351.958 631.344 353.63C626.013 355.302 617.459 328.32 617.459 328.32Z" fill="black"/>
<path opacity="0.1" d="M633.027 322.386C633.444 322.689 640.611 339.057 641.437 334.68C642.264 330.304 635.272 346.655 634.15 334.533L633.027 322.386Z" fill="black"/>
<path opacity="0.1" d="M596.681 190.699C596.681 190.699 588.862 185.544 579.042 198.731C579.042 198.731 571.891 203.124 569.791 204.19C567.69 205.255 565.301 233.442 565.301 233.442C565.301 233.442 560.676 245.564 561.934 252.539C563.193 259.514 558.294 283.455 558.294 283.455C558.294 283.455 550.15 326.484 550.423 327.714C550.696 328.943 558.696 314.223 558.56 306.945C558.423 299.667 565.286 276.939 566.272 275.57C567.258 274.201 573.984 235.261 573.984 235.261C573.984 235.261 579.452 218.738 582.955 213.279C586.459 207.821 590.811 197.518 592.631 195.699C593.941 194.473 595.404 193.453 596.977 192.666L596.681 190.699Z" fill="black"/>
<path d="M596.779 190.699C596.779 190.699 588.013 185.544 578.2 198.731C578.2 198.731 571.042 203.124 568.941 204.19C566.841 205.255 564.452 233.442 564.452 233.442C564.452 233.442 559.826 245.564 561.085 252.539C562.344 259.514 557.445 283.455 557.445 283.455C557.445 283.455 549.308 326.501 549.589 327.714C549.869 328.927 557.862 314.223 557.726 306.945C557.589 299.667 564.452 276.939 565.438 275.57C566.424 274.201 573.173 235.261 573.173 235.261C573.173 235.261 578.64 218.738 582.144 213.279C585.647 207.821 590 197.518 591.82 195.699C593.64 193.879 597.007 192.666 597.007 192.666L596.779 190.699Z" fill="#4C4981"/>
<path d="M558.287 285.422C558.287 285.422 541.604 273.603 533.535 279.438C525.466 285.274 512.302 293.536 525.262 299.519C538.221 305.502 556.179 304.355 556.179 304.355L558.287 285.422Z" fill="#FEC2BE"/>
<path opacity="0.1" d="M569.889 399.479C572.376 405.216 574.439 434.214 575.819 443.402C577.814 439.714 580.225 435.296 581.037 433.919C582.068 432.165 584.555 424.707 585.943 420.404C584.358 416.24 579.983 404.306 579.983 399.913C579.983 394.569 571.99 387.865 571.99 387.865C571.99 387.865 566.947 392.66 569.889 399.479Z" fill="black"/>
<path opacity="0.1" d="M623.526 488.481C623.526 488.481 605.015 479.957 599.547 486.022C594.08 492.087 623.526 488.481 623.526 488.481Z" fill="black"/>
<path opacity="0.1" d="M613.114 491.89C613.114 491.89 631.837 503.258 625.421 505.16C619.006 507.061 613.114 491.89 613.114 491.89Z" fill="black"/>
<path opacity="0.1" d="M557.164 482.006C557.164 482.006 565.157 482.571 562.109 484.276C559.06 485.981 557.164 482.006 557.164 482.006Z" fill="black"/>
<path opacity="0.1" d="M547.17 484.62C547.276 485.186 570.412 493.259 565.893 496.915C561.373 500.57 547.17 484.62 547.17 484.62Z" fill="black"/>
<path opacity="0.1" d="M620.788 554.189C617.322 553.615 597.97 543.952 605.538 550.91C613.106 557.869 620.788 554.189 620.788 554.189Z" fill="black"/>
<path opacity="0.1" d="M611.218 561.803C611.218 561.803 609.534 568.852 603.119 567.942C596.704 567.032 611.218 561.803 611.218 561.803Z" fill="black"/>
<path opacity="0.1" d="M616.587 576.122C615.427 575.786 601.648 568.966 601.337 572.147C601.026 575.327 614.479 580.9 615.533 579.195C616.137 578.294 616.502 577.231 616.587 576.122Z" fill="black"/>
<path opacity="0.1" d="M571.99 567.942C570.306 567.827 554.548 562.368 551.378 567.253L571.99 567.942Z" fill="black"/>
<path opacity="0.1" d="M557.688 571.122C557.688 571.122 554.95 568.507 552.22 569.868C549.49 571.229 557.688 571.122 557.688 571.122Z" fill="black"/>
<path opacity="0.1" d="M592.609 599.317C592.432 600.283 591.999 601.172 591.364 601.878C590.729 602.583 589.918 603.075 589.029 603.292L592.609 599.317Z" fill="black"/>
<path d="M512.355 609.996C513.409 614.66 528.136 615.111 535.181 613.865C542.226 612.619 556.846 608.062 556.846 608.062C556.846 608.062 572.202 606.472 576.722 604.431C581.241 602.39 577.67 597.153 577.67 597.153C577.67 597.153 577.67 596.973 577.67 596.661C577.776 594.76 578.094 587.867 577.01 586.006C575.751 583.843 576.487 576.794 576.487 576.794C576.487 576.794 554.715 581.343 554.29 579.187C553.866 577.032 550.499 573.958 548.929 573.278C547.359 572.597 546.192 578.958 546.192 578.958C546.192 578.958 536.333 588.055 535.674 591.35C535.014 594.645 528.09 596.35 528.09 596.35C528.09 596.35 517.572 599.53 514.835 601.12C514.04 601.524 513.356 602.143 512.848 602.917C512.341 603.691 512.027 604.594 511.938 605.538C511.823 607.039 511.964 608.55 512.355 609.996Z" fill="#CA8496"/>
<path opacity="0.1" d="M512.355 609.996C513.409 614.66 528.136 615.111 535.181 613.865C542.226 612.619 556.846 608.062 556.846 608.062C556.846 608.062 572.202 606.472 576.722 604.431C581.241 602.39 577.67 597.153 577.67 597.153C577.67 597.153 577.67 596.973 577.67 596.661L555.678 601.931C555.678 601.931 544.842 606.931 537.903 606.931C531.836 606.931 518.262 609.611 511.968 605.546C511.844 607.042 511.976 608.551 512.355 609.996Z" fill="black"/>
<path opacity="0.1" d="M542.119 592.039C542.119 592.039 543.173 599.538 547.382 602.038L542.119 592.039Z" fill="black"/>
<path opacity="0.1" d="M569.73 145.58C570.13 145.808 570.549 145.998 570.981 146.145C572.953 146.719 574.879 145.276 576.631 144.129C578.382 142.981 580.801 142.129 582.318 143.621C584.297 145.563 582.864 149.71 584.904 151.587C586.193 152.776 588.241 152.366 589.674 153.341C591.107 154.317 591.539 156.456 591.903 158.3C592.267 160.144 592.995 162.25 594.664 162.791C596.332 163.332 597.887 162.144 599.532 162.209C599.873 162.209 600.29 162.267 600.503 162.005C600.653 161.764 600.71 161.47 600.662 161.185C600.456 158.982 600.639 156.757 601.2 154.628C601.875 152.53 603.475 150.637 605.477 150.3C608.427 149.809 610.907 152.604 612.644 155.218C614.469 157.987 616.131 160.878 617.618 163.873C617.712 164.067 617.796 164.267 617.868 164.472C619.293 160.993 620.041 157.236 620.064 153.432C620.088 149.628 619.388 145.86 618.007 142.361C616.626 138.863 614.594 135.708 612.037 133.094C609.481 130.481 606.454 128.463 603.145 127.167C599.836 125.872 596.316 125.325 592.803 125.562C589.291 125.8 585.861 126.815 582.727 128.546C579.593 130.276 576.822 132.685 574.586 135.623C572.35 138.56 570.697 141.963 569.73 145.621V145.58Z" fill="black"/>
<path d="M612.644 154.759C610.907 152.12 608.427 149.333 605.47 149.841C603.445 150.178 601.883 152.071 601.2 154.161C600.638 156.29 600.458 158.516 600.67 160.718C600.712 161.004 600.652 161.297 600.503 161.537C600.268 161.808 599.873 161.767 599.532 161.75C597.887 161.685 596.249 162.841 594.664 162.332C593.079 161.824 592.267 159.685 591.903 157.841C591.539 155.997 591.145 153.89 589.674 152.882C588.203 151.874 586.193 152.317 584.904 151.12C582.864 149.251 584.305 145.096 582.318 143.153C580.801 141.67 578.382 142.522 576.631 143.67C574.879 144.817 572.953 146.252 570.974 145.678C570.306 145.481 569.707 145.071 569.055 144.801C565.938 143.514 561.896 145.694 559.333 143.383C558.403 142.377 557.734 141.125 557.392 139.752C556.689 137.895 556.212 135.947 555.974 133.957C555.747 131.946 556.259 129.919 557.4 128.31C559.068 126.187 561.889 125.655 564.02 124.089C565.832 122.745 567.053 120.704 568.251 118.696C569.449 116.688 570.61 114.598 572.361 113.18C574.113 111.762 576.57 111.057 578.526 112.131C579.144 112.596 579.828 112.948 580.551 113.172C581.34 113.183 582.115 112.953 582.788 112.508C590.083 108.795 598.577 109.451 606.577 110.557C609.777 111 613.023 111.516 615.942 113.016C618.862 114.516 621.44 117.114 622.259 120.491C622.911 123.163 622.411 126.073 623.199 128.687C623.73 130.474 624.822 131.966 625.474 133.761C627.181 138.555 625.141 143.817 624.276 148.866C623.336 154.382 623.806 160.341 621.637 165.57C621.213 166.594 620.735 168.389 619.666 167.717C618.907 167.217 618.104 164.308 617.649 163.398C616.153 160.406 614.481 157.52 612.644 154.759Z" fill="#9A5E7F"/>
<path opacity="0.1" d="M658.863 243.597L662.655 255.268C662.655 255.268 653.677 291.331 649.468 298.912C645.259 306.494 639.094 316.19 639.094 316.19C639.094 316.19 628.72 321.804 616.655 319.222C604.59 316.641 569.381 309.83 569.381 309.83C569.381 309.83 566.431 310.436 564.892 308.01C563.352 305.584 555.337 304.355 555.337 304.355C555.337 304.355 546.085 289.807 557.445 283.741C557.445 283.741 558.848 287.077 564.877 284.807C570.905 282.537 572.725 286.618 572.725 286.618C572.725 286.618 582.584 288.741 588.013 287.987C593.443 287.233 607.085 286.922 608.488 285.709C608.844 285.372 609.308 285.199 609.78 285.228C610.252 285.257 610.695 285.486 611.013 285.864C611.013 285.864 614.373 284.504 615.495 283.135C616.617 281.766 618.164 284.651 618.164 284.651C618.164 284.651 620.128 283.438 619.567 281.922C619.006 280.406 621.387 274.652 621.387 274.652C621.387 274.652 622.509 270.857 621.812 267.825C621.114 264.792 625.315 253.891 625.315 253.891C625.37 252.052 625.181 250.214 624.754 248.433C624.049 245.711 630.062 240.236 630.062 240.236C630.062 240.236 635.947 209.313 648.429 219.467C660.911 229.622 658.863 243.597 658.863 243.597Z" fill="black"/>
<path d="M659.667 243.597L663.459 255.268C663.459 255.268 654.48 291.331 650.272 298.912C646.063 306.494 639.905 316.19 639.905 316.19C639.905 316.19 629.531 321.804 617.467 319.222C605.402 316.641 570.208 309.83 570.208 309.83C570.208 309.83 567.265 310.436 565.726 308.01C564.187 305.584 556.179 304.355 556.179 304.355C556.179 304.355 546.927 289.807 558.287 283.741C558.287 283.741 559.69 287.077 565.718 284.807C571.747 282.537 573.567 286.618 573.567 286.618C573.567 286.618 583.425 288.741 588.855 287.987C594.285 287.233 607.927 286.922 609.33 285.709C609.686 285.372 610.149 285.199 610.622 285.228C611.094 285.257 611.537 285.486 611.855 285.864C611.855 285.864 615.214 284.504 616.337 283.135C617.459 281.766 619.006 284.651 619.006 284.651C619.006 284.651 620.97 283.438 620.409 281.922C619.848 280.406 622.229 274.652 622.229 274.652C622.229 274.652 623.351 270.857 622.646 267.825C621.941 264.792 626.157 253.891 626.157 253.891C626.212 252.052 626.023 250.214 625.596 248.433C624.891 245.711 630.904 240.236 630.904 240.236C630.904 240.236 636.789 209.313 649.271 219.467C661.753 229.622 659.667 243.597 659.667 243.597Z" fill="#4C4981"/>
<path opacity="0.1" d="M568.524 292.397C568.661 293.462 571.747 297.699 570.625 298.462C569.502 299.224 567.682 298.765 569.366 301.191C571.049 303.617 570.883 307.248 569.783 306.797C568.683 306.346 566.841 300.888 566.841 298.765C566.841 296.642 568.524 292.397 568.524 292.397Z" fill="black"/>
<path opacity="0.1" d="M610.171 289.971C610.171 289.971 611.013 300.585 617.914 303.617C624.815 306.65 610.171 289.971 610.171 289.971Z" fill="black"/>
<path opacity="0.1" d="M624.473 286.323C624.891 286.479 634.286 291.938 630.085 295.118C625.884 298.298 624.473 286.323 624.473 286.323Z" fill="black"/>
<path opacity="0.1" d="M625.035 278.758C625.035 278.758 638.775 281.791 634.134 284.364C629.494 286.938 625.035 278.758 625.035 278.758Z" fill="black"/>
<g opacity="0.1">
<path opacity="0.1" d="M601.231 151.563C601.913 149.473 603.506 147.579 605.5 147.243C608.458 146.752 610.937 149.546 612.674 152.161C614.499 154.93 616.161 157.82 617.649 160.816C618.104 161.726 618.877 164.627 619.666 165.127C620.735 165.808 621.182 164.013 621.637 162.988C623.806 157.775 623.336 151.8 624.276 146.284C624.83 143.063 625.854 139.727 626.081 136.531C626.407 140.498 624.966 144.67 624.276 148.702C623.336 154.218 623.806 160.177 621.637 165.414C621.213 166.439 620.735 168.234 619.666 167.553C618.907 167.053 618.104 164.152 617.649 163.242C616.161 160.247 614.499 157.356 612.674 154.587C610.937 151.956 608.458 149.161 605.5 149.669C603.475 150.005 601.913 151.899 601.231 153.989C600.892 155.09 600.703 156.238 600.67 157.398C600.519 155.432 600.71 153.453 601.231 151.563Z" fill="black"/>
<path opacity="0.1" d="M557.392 137.154C557.732 138.53 558.402 139.785 559.333 140.793C561.896 143.104 565.938 140.924 569.055 142.211C569.707 142.473 570.306 142.891 570.974 143.088C572.953 143.653 574.887 142.219 576.631 141.072C578.375 139.924 580.809 139.08 582.318 140.564C584.305 142.506 582.864 146.653 584.904 148.53C586.193 149.719 588.241 149.35 589.674 150.292C591.107 151.235 591.539 153.399 591.903 155.21C592.267 157.021 592.988 159.161 594.664 159.701C596.34 160.242 597.887 159.062 599.532 159.128C599.873 159.128 600.29 159.185 600.503 158.915C600.552 158.846 600.591 158.768 600.617 158.685C600.617 159.3 600.617 159.906 600.67 160.513C600.711 160.799 600.651 161.092 600.503 161.332C600.268 161.595 599.873 161.554 599.532 161.537C597.887 161.48 596.249 162.627 594.664 162.119C593.079 161.611 592.267 159.48 591.903 157.628C591.539 155.776 591.145 153.677 589.674 152.71C588.203 151.743 586.193 152.136 584.904 150.948C582.864 149.071 584.305 144.916 582.318 142.981C580.801 141.49 578.382 142.342 576.631 143.49C574.879 144.637 572.953 146.071 570.974 145.506C570.306 145.309 569.707 144.891 569.055 144.629C565.938 143.342 561.896 145.522 559.333 143.211C558.403 142.202 557.734 140.947 557.392 139.572C556.689 137.717 556.213 135.772 555.974 133.785C555.921 133.108 555.936 132.426 556.019 131.753C556.283 133.604 556.744 135.416 557.392 137.154Z" fill="black"/>
</g>
<path d="M75.6657 595.514C75.6657 595.514 43.6037 593.424 47.3801 617.701C47.3801 617.701 46.6218 621.996 50.2314 623.946C50.2314 623.946 50.2845 622.143 53.5226 622.75C54.6722 622.958 55.8402 623.021 57.0033 622.938C58.5748 622.821 60.0682 622.153 61.2575 621.037C61.2575 621.037 70.274 617.012 73.7774 601.087C73.7774 601.087 76.3709 597.62 76.2647 596.727L70.8579 599.186C70.8579 599.186 72.7082 603.407 71.2522 606.915C71.2522 606.915 71.0778 599.341 70.0389 599.538C69.8266 599.538 67.2255 600.997 67.2255 600.997C67.2255 600.997 70.4105 608.374 67.9838 613.693C67.9838 613.693 68.8938 604.636 66.2094 601.53L62.4177 603.931C62.4177 603.931 66.1335 611.521 63.6159 617.717C63.6159 617.717 64.2605 608.218 61.6139 604.521L58.1635 607.431C58.1635 607.431 61.6594 614.906 59.5285 620.045C59.5285 620.045 59.2479 608.988 57.4204 608.152C57.4204 608.152 54.3871 611.029 53.9396 612.25C53.9396 612.25 56.3284 617.684 54.8421 620.553C54.8421 620.553 53.9321 613.177 53.1889 613.177C53.1889 613.177 50.1556 618.053 49.8674 621.373C49.8674 621.373 49.9964 616.398 52.4609 612.677C50.726 613.032 49.1257 613.93 47.8579 615.258C47.8579 615.258 48.3205 611.808 53.2041 611.505C53.2041 611.505 55.6914 607.8 56.3511 607.579C56.3511 607.579 51.4978 607.136 48.5555 608.546C48.5555 608.546 51.149 605.267 57.2459 606.775L60.6508 603.767C60.6508 603.767 54.2581 602.825 51.5509 603.866C51.5509 603.866 54.6676 600.989 61.5684 603.087L65.2766 600.686C65.2766 600.686 59.8318 599.415 56.5862 599.866C56.5862 599.866 60.0062 597.874 66.3686 600.038L69.0152 598.751C69.0152 598.751 65.0264 597.932 63.8585 597.768C62.6907 597.604 62.6225 597.284 62.6225 597.284C65.1514 596.829 67.7478 597.141 70.1223 598.186C70.1223 598.186 75.7567 595.891 75.6657 595.514Z" fill="#FF6366"/>
<path opacity="0.1" d="M53.5833 630.208C66.1141 630.208 76.2724 628.351 76.2724 626.061C76.2724 623.77 66.1141 621.914 53.5833 621.914C41.0524 621.914 30.8942 623.77 30.8942 626.061C30.8942 628.351 41.0524 630.208 53.5833 630.208Z" fill="#FF6366"/>
<path d="M137.136 531.526C137.136 531.526 119.057 530.346 121.211 544.042C121.102 544.736 121.199 545.45 121.488 546.082C121.776 546.713 122.242 547.23 122.818 547.558C122.818 547.558 122.818 546.542 124.676 546.886C125.325 547 125.984 547.036 126.64 546.993C127.525 546.921 128.365 546.544 129.037 545.919C129.037 545.919 134.102 543.681 136.104 534.666C136.104 534.666 137.568 532.707 137.507 532.207L134.474 533.608C134.474 533.608 135.513 535.993 134.694 537.969C134.694 537.969 134.595 533.698 134.011 533.797C133.89 533.797 132.426 534.616 132.426 534.616C132.426 534.616 134.216 538.714 132.866 541.772C132.866 541.772 133.374 536.665 131.865 534.911L129.704 536.305C129.704 536.305 131.797 540.583 130.379 544.075C130.379 544.075 130.743 538.715 129.249 536.633L127.308 538.272C127.308 538.272 129.272 542.493 128.066 545.386C128.066 545.386 127.907 539.149 126.875 538.682C126.139 539.357 125.48 540.124 124.911 540.968C124.911 540.968 126.261 544.034 125.427 545.648C125.427 545.648 124.911 541.493 124.494 541.477C124.494 541.477 122.796 544.222 122.621 546.116C122.7 544.367 123.202 542.671 124.077 541.198C123.1 541.403 122.199 541.91 121.484 542.657C121.484 542.657 121.749 540.706 124.517 540.542C124.517 540.542 125.912 538.452 126.292 538.329C126.292 538.329 123.554 538.075 121.893 538.87C121.893 538.87 123.357 537.034 126.792 537.87L128.711 536.174C128.711 536.174 125.109 535.641 123.584 536.231C123.584 536.231 125.344 534.592 129.234 535.788L131.319 534.444C129.712 534.059 128.065 533.905 126.42 533.985C126.42 533.985 128.354 532.854 131.933 534.076L133.45 533.354C133.45 533.354 131.175 532.871 130.546 532.797C129.916 532.723 129.848 532.526 129.848 532.526C131.275 532.27 132.74 532.446 134.08 533.035C134.08 533.035 137.219 531.74 137.136 531.526Z" fill="#FF6366"/>
<path opacity="0.1" d="M124.714 551.083C131.78 551.083 137.507 550.037 137.507 548.747C137.507 547.457 131.78 546.411 124.714 546.411C117.649 546.411 111.921 547.457 111.921 548.747C111.921 550.037 117.649 551.083 124.714 551.083Z" fill="#FF6366"/>
<path d="M30.4771 543.411C30.4771 543.411 8.65252 541.985 11.2536 558.516C11.1215 559.355 11.2382 560.217 11.5868 560.98C11.9355 561.742 12.4984 562.366 13.1949 562.762C13.1949 562.762 13.1949 561.533 15.4319 561.942C16.2158 562.086 17.0126 562.127 17.8055 562.065C18.8763 561.988 19.894 561.533 20.7023 560.77C20.7023 560.77 26.8372 558.033 29.2259 547.198C29.2259 547.198 30.9852 544.837 30.917 544.231L27.1784 545.935C27.1784 545.935 28.4297 548.804 27.4438 551.189C27.4438 551.189 27.3225 546.042 26.6172 546.165C26.4732 546.165 24.7063 547.157 24.7063 547.157C24.7063 547.157 26.8675 552.156 25.2371 555.795C25.2371 555.795 25.8513 549.632 24.0238 547.517L21.4379 549.156C21.4379 549.156 23.9631 554.32 22.2493 558.533C22.2493 558.533 22.6891 552.066 20.8919 549.517L18.5411 551.501C18.5411 551.501 20.9146 556.59 19.4662 560.09C19.4662 560.09 19.2767 552.558 18.033 551.992C18.033 551.992 15.9779 553.951 15.6594 554.754C15.6594 554.754 17.2899 558.451 16.2813 560.402C16.2813 560.402 15.6594 555.386 15.1514 555.361C15.1514 555.361 13.1039 558.689 12.8764 560.967C12.9779 558.862 13.587 556.822 14.6433 555.05C13.4603 555.289 12.3685 555.899 11.5038 556.803C11.5038 556.803 11.8223 554.451 15.1514 554.246C15.1514 554.246 16.8424 551.73 17.2899 551.574C17.2899 551.574 13.9911 551.271 11.9816 552.23C11.9816 552.23 13.7485 550.017 17.8965 551.025L20.217 548.976C20.217 548.976 15.8642 548.337 14.0215 549.05C14.0215 549.05 16.1448 547.083 20.8464 548.517L23.3716 546.878C23.3716 546.878 19.6634 546.009 17.4567 546.321C17.4567 546.321 19.7847 544.96 24.1148 546.435L25.9196 545.558C25.9196 545.558 23.2048 544.985 22.4085 544.895C21.6123 544.804 21.5668 544.567 21.5668 544.567C23.2871 544.252 25.0545 544.462 26.6703 545.173C26.6703 545.173 30.5454 543.681 30.4771 543.411Z" fill="#FF6366"/>
<path opacity="0.1" d="M15.4471 567.024C23.9783 567.024 30.8942 565.762 30.8942 564.205C30.8942 562.648 23.9783 561.385 15.4471 561.385C6.9159 561.385 0 562.648 0 564.205C0 565.762 6.9159 567.024 15.4471 567.024Z" fill="#FF6366"/>
<path opacity="0.1" d="M460.85 671C473.38 671 483.539 669.143 483.539 666.853C483.539 664.562 473.38 662.706 460.85 662.706C448.319 662.706 438.16 664.562 438.16 666.853C438.16 669.143 448.319 671 460.85 671Z" fill="#FF6366"/>
<path d="M445.615 647.592C445.615 647.592 458.559 647.157 462.457 644.158C466.355 641.158 482.363 637.601 483.334 642.387C484.305 647.174 502.785 666.328 488.172 666.459C473.559 666.59 454.222 664 450.324 661.435C446.426 658.87 445.615 647.592 445.615 647.592Z" fill="#A8A8A8"/>
<path opacity="0.2" d="M488.43 664.779C473.817 664.91 454.48 662.32 450.589 659.763C447.624 657.804 446.441 650.805 446.039 647.575H445.607C445.607 647.575 446.426 658.853 450.316 661.419C454.207 663.984 473.552 666.566 488.164 666.443C492.381 666.443 493.837 664.804 493.761 662.345C493.185 663.845 491.569 664.755 488.43 664.779Z" fill="black"/>
<defs>
<linearGradient id="paint0_linear" x1="540.951" y1="220.59" x2="540.951" y2="194.42" gradientUnits="userSpaceOnUse">
<stop stop-color="#808080" stop-opacity="0.25"/>
<stop offset="0.54" stop-color="#808080" stop-opacity="0.12"/>
<stop offset="1" stop-color="#808080" stop-opacity="0.1"/>
</linearGradient>
<linearGradient id="paint1_linear" x1="225964" y1="420654" x2="225964" y2="89660.7" gradientUnits="userSpaceOnUse">
<stop stop-color="#808080" stop-opacity="0.25"/>
<stop offset="0.54" stop-color="#808080" stop-opacity="0.12"/>
<stop offset="1" stop-color="#808080" stop-opacity="0.1"/>
</linearGradient>
</defs>
</svg>
